<!-- Generator: Adobe Illustrator 22.1.0, SVG Export Plug-In  -->
<svg version="1.1"
	 xmlns="http://www.w3.org/2000/svg" xmlns:xlink="http://www.w3.org/1999/xlink" xmlns:a="http://ns.adobe.com/AdobeSVGViewerExtensions/3.0/"
	 x="0px" y="0px" width="283.557px" height="212.327px" viewBox="0 0 283.557 212.327"
	 style="enable-background:new 0 0 283.557 212.327;" xml:space="preserve">
<style type="text/css">
	.st0{fill:#FFFFFF;}
</style>
<defs>
</defs>
<g>
	<g>
		<path class="st0" d="M82.378,109.81c0.242,0.246,0.623,0.528,1.053,0.469c0.745-0.104,0.749-0.237,1.497-0.365
			c0.746-0.129,0.751-0.061,1.497-0.209c0.749-0.149,0.751-0.081,1.499-0.251c0.75-0.17,0.749-0.308,1.502-0.501
			c0.752-0.192,0.75-0.191,1.502-0.405c0.752-0.213,0.752-0.213,1.504-0.446c0.75-0.232,0.753-0.305,1.506-0.559
			c0.755-0.254,0.754-0.108,1.5-0.377c0.754-0.272,0.755-0.273,1.509-0.563c0.755-0.291,0.755-0.365,1.51-0.674
			c0.756-0.309,0.759-0.31,1.512-0.636c0.754-0.328,0.756-0.104,1.574-0.477c0.759-0.345,0.757-0.493,1.516-0.855
			c0.76-0.361,0.759-0.212,1.515-0.589c0.759-0.378,0.76-0.378,1.518-0.77c0.758-0.393,0.76-0.619,1.521-1.027
			c0.761-0.408,0.757-0.256,1.513-0.674c0.761-0.421,0.76-0.347,1.521-0.782c0.76-0.434,0.766-0.741,1.526-1.187
			c0.761-0.447,0.759-0.219,1.522-0.679c0.449-0.271,0.826-0.838,1.086-1.357c0.236-0.469,0.457-1.084,0.463-1.687
			c0.009-0.947-0.053-0.907-0.04-2.037c0.011-1.034,0.013-1.03,0.025-2.251c0.012-1.221,0.077-1.265,0.09-2.459
			c0.014-1.302,0.016-1.309,0.029-2.568c0.014-1.38,0.016-1.382,0.031-2.834c0.008-0.725-0.124-1.665-0.361-2
			c-0.258-0.366-0.685-0.621-1.133-0.374c-0.766,0.421-0.765,0.423-1.529,0.836c-0.767,0.413-0.765,0.542-1.466,0.915
			c-0.764,0.406-0.767,0.535-1.521,0.93c-0.761,0.398-0.763,0.27-1.524,0.659c-0.761,0.389-0.769,0.783-1.528,1.163
			c-0.697,0.348-0.695-0.176-1.455,0.193c-0.76,0.369-0.766,0.76-1.525,1.119c-0.759,0.359-0.759,0.359-1.52,0.706
			c-0.762,0.349-0.76,0.484-1.457,0.793c-0.759,0.336-0.759,0.201-1.51,0.52c-0.76,0.324-0.754-0.069-1.513,0.241
			c-0.758,0.31-0.761,0.706-1.517,1.003c-0.381,0.15-0.819-0.073-1.13-0.621c-0.248-0.438-0.426-1.319-0.42-2.285
			c0.012-1.796,0.198-1.87,0.213-3.734c0.015-1.865,0.013-1.871,0.026-3.648c0.013-1.925-0.112-1.878-0.098-3.855
			c0.007-1.063,0.201-2.058,0.457-2.762c0.325-0.894,0.705-1.506,1.088-1.653c0.76-0.291,0.758-0.13,1.518-0.431
			c0.825-0.326,0.823-0.485,1.585-0.794c0.761-0.307,0.76-0.148,1.521-0.463c0.753-0.311,0.752-0.16,1.516-0.483
			c0.766-0.324,0.766-0.474,1.527-0.804c0.758-0.328,0.764-0.488,1.528-0.823c0.764-0.334,0.763-0.335,1.528-0.675
			c0.763-0.34,0.764-0.183,1.527-0.529c0.763-0.346,0.768-0.346,1.53-0.698c0.439-0.203,0.749-1.042,1.032-1.822
			c0.257-0.708,0.654-1.792,0.664-2.699c0.023-2.122,0.021-2.127,0.042-4.114c0.023-2.138,0.022-2.142,0.042-4.143
			c0.023-2.154-0.168-2.077-0.148-4.085c0.02-2.006,0.083-2.034,0.106-4.185c0.011-1.076-0.187-1.954-0.424-2.446
			c-0.269-0.558-0.631-0.838-1.075-0.675c-0.77,0.283-0.77,0.435-1.538,0.718c-0.767,0.282-0.766-0.024-1.532,0.258
			c-0.766,0.282-0.767,0.437-1.535,0.72c-0.767,0.284-0.77,0.44-1.534,0.722c-0.768,0.284-0.765,0.127-1.531,0.411
			c-0.761,0.282-0.764-0.029-1.521,0.25c-0.764,0.282-0.769,0.751-1.533,1.033c-0.766,0.283-0.763-0.031-1.589,0.272
			c-0.762,0.28-0.766,0.595-1.528,0.874c-0.383,0.14-0.694-0.542-1.004-1.204c-0.251-0.538-0.437-1.26-0.43-2.351
			c0.011-1.872-0.115-1.83-0.1-3.671c0.014-1.842-0.05-1.821-0.038-3.612c0.012-1.799,0.073-1.826,0.088-3.574
			c0.008-1.02,0.206-2.109,0.46-2.754c0.284-0.716,0.77-1.407,1.159-1.549c0.829-0.301,0.823,0.259,1.591-0.016
			c0.766-0.274,0.77-0.694,1.536-0.964c0.83-0.292,0.831-0.571,1.599-0.836c0.766-0.265,0.771,0.011,1.527-0.246
			c0.83-0.282,0.832-0.144,1.599-0.4c0.765-0.255,0.768-0.118,1.536-0.369c0.83-0.271,0.834-0.273,1.602-0.519
			c0.767-0.245,0.773-0.661,1.543-0.902c0.831-0.261,0.831,0.152,1.6-0.085c0.769-0.236,0.771-0.373,1.542-0.604
			c0.833-0.249,0.833-0.112,1.604-0.338c0.447-0.13,0.764-1.014,1.04-1.652c0.259-0.598,0.401-1.323,0.412-2.241
			c0.016-1.577,0.271-1.644,0.287-3.025c0.016-1.513-0.239-1.448-0.224-2.886c0.014-1.319,0.33-1.405,0.347-2.759
			c0.015-1.237-0.053-1.231-0.037-2.496c0.016-1.267-0.051-1.249-0.039-2.323c0.007-0.682-0.244-1.178-0.501-1.481
			c-0.315-0.374-0.638-0.646-1.085-0.534c-0.774,0.194-0.776,0.279-1.611,0.499c-0.774,0.204-0.773,0.378-1.547,0.593
			c-0.774,0.214-0.77-0.047-1.607,0.197c-0.771,0.225-0.776,0.313-1.545,0.548c-0.836,0.256-0.839,0.345-1.609,0.59
			c-0.771,0.247-0.774,0.248-1.543,0.504c-0.834,0.278-0.838,0.281-1.606,0.548c-0.764,0.266-0.77,0.353-1.536,0.63
			c-0.832,0.301-0.835,0.048-1.601,0.338c-0.768,0.29-0.771,0.29-1.539,0.59c-0.829,0.325-0.834,0.327-1.6,0.636
			c-0.771,0.312-0.768,0.393-1.6,0.74c-0.769,0.322-0.769,0.241-1.534,0.57c-0.767,0.33-0.771,0.413-1.597,0.78
			c-0.766,0.341-0.766,0.262-1.531,0.611c-0.764,0.35-0.768,0.43-1.593,0.818c-0.764,0.36-0.764,0.36-1.527,0.729
			c-0.766,0.37-0.765,0.293-1.588,0.702c-0.764,0.379-0.763,0.53-1.525,0.916c-0.44,0.223-0.891,0.604-1.14,1.042
			c-0.255,0.448-0.381,1.069-0.384,1.674c-0.005,1.039,0.058,1.011,0.053,2.177c-0.004,1.067-0.199,1.161-0.206,2.434
			c-0.006,1.28,0.127,1.221,0.119,2.607c-0.007,1.384-0.005,1.392-0.013,2.748c-0.009,1.477-0.007,1.482-0.014,3.044
			c-0.007,1.556-0.006,1.559-0.015,3.197c-0.009,1.638-0.202,1.721-0.209,3.278c-0.008,1.697,0.186,1.627,0.178,3.382
			c-0.008,1.747-0.072,1.775-0.079,3.574c-0.007,1.652-0.076,1.676-0.085,3.512c-0.009,1.835,0.122,1.794,0.114,3.655
			c-0.008,1.861,0.054,1.846,0.045,3.72c-0.008,1.727-0.264,1.811-0.273,3.703c-0.009,1.891,0.054,1.873,0.045,3.767
			c-0.009,1.894,0.185,1.836,0.176,3.562c-0.01,1.891-0.133,1.928-0.142,3.802c-0.009,1.875,0.115,1.842,0.107,3.694
			c-0.008,1.853-0.131,1.888-0.141,3.552c-0.01,1.824,0.052,1.81,0.045,3.593c-0.007,1.782-0.073,1.804-0.079,3.54
			c-0.005,1.593,0.116,1.567,0.108,3.253c-0.009,1.68-0.008,1.68-0.015,3.301c-0.007,1.621-0.008,1.623-0.015,3.172
			c-0.007,1.419-0.132,1.451-0.138,2.92c-0.006,1.469,0.118,1.448,0.11,2.82c-0.007,1.379-0.007,1.378-0.012,2.554
			c-0.006,1.283-0.198,1.318-0.203,2.489c-0.005,1.171,0.185,1.145,0.18,2.194c-0.004,0.965-0.26,1.008-0.262,1.936
			C81.758,109.18,82.125,109.554,82.378,109.81z"/>
	</g>
	<g>
		<path class="st0" d="M120.23,149.8c0.285,0.195,0.682,0.279,1.06,0.179c0.754-0.201,0.754-0.199,1.569-0.423
			c0.754-0.207,0.751-0.076,1.507-0.289c0.754-0.212,0.755-0.277,1.509-0.496c0.755-0.219,0.755-0.347,1.508-0.572
			c0.757-0.225,0.755-0.093,1.571-0.341c0.755-0.229,0.755-0.23,1.51-0.464c0.756-0.234,0.755-0.169,1.51-0.408
			c0.756-0.239,0.757-0.37,1.514-0.616c0.753-0.243,0.756-0.113,1.572-0.381c0.751-0.248,0.757-0.447,1.512-0.699
			c0.753-0.252,0.756-0.253,1.513-0.511c0.756-0.257,0.755-0.19,1.512-0.451c0.758-0.261,0.755-0.195,1.575-0.481
			c0.758-0.265,0.754-0.329,1.512-0.598c0.759-0.268,0.758-0.269,1.514-0.539c0.759-0.271,0.76-0.408,1.516-0.682
			c0.758-0.275,0.756-0.135,1.575-0.434c0.754-0.275,0.758-0.21,1.514-0.487c0.755-0.277,0.753-0.278,1.512-0.558
			c0.443-0.163,0.878-0.518,1.144-0.901c0.253-0.363,0.454-0.933,0.463-1.436c0.016-0.864,0.015-0.867,0.029-1.695
			c0.014-0.904-0.109-0.857-0.093-1.794c0.014-0.862,0.142-0.914,0.157-1.885c0.015-0.972,0.016-0.975,0.034-1.98
			c0.016-0.918-0.106-0.87-0.091-1.896c0.008-0.597-0.173-0.96-0.419-1.2c-0.245-0.238-0.557-0.542-1.001-0.353
			c-0.76,0.324-0.761,0.408-1.518,0.729c-0.76,0.322-0.761,0.323-1.52,0.642c-0.761,0.321-0.759,0.403-1.521,0.723
			c-0.757,0.317-0.761,0.237-1.518,0.551c-0.759,0.317-0.759,0.316-1.516,0.63c-0.757,0.313-0.758,0.313-1.518,0.626
			c-0.756,0.31-0.76,0.232-1.517,0.54c-0.759,0.31-0.758,0.229-1.517,0.536c-0.758,0.307-0.76,0.307-1.514,0.608
			c-0.76,0.303-0.76,0.38-1.518,0.679c-0.76,0.3-0.762,0.453-1.519,0.746c-0.442,0.171-0.88,0.188-1.192-0.075
			c-0.25-0.21-0.242-0.824-0.235-1.287c0.015-0.926,0.014-0.928,0.026-1.863c0.012-0.929,0.08-0.96,0.093-1.902
			c0.012-0.863-0.054-0.839-0.041-1.783c0.013-0.945-0.049-0.92-0.036-1.869c0.013-0.949,0.141-1.015,0.156-1.961
			c0.015-0.953-0.055-0.921-0.041-1.795c0.014-0.953,0.08-0.987,0.093-1.94c0.014-0.952,0.015-0.954,0.027-1.903
			c0.012-0.945-0.179-0.84-0.166-1.706c0.013-0.941,0.013-0.946,0.027-1.883c0.014-0.938-0.051-0.9-0.036-1.832
			c0.014-0.927,0.204-1.042,0.215-1.965c0.01-0.845-0.176-0.732-0.164-1.643c0.012-0.912,0.269-1.078,0.282-1.979
			c0.013-0.901-0.117-0.818-0.104-1.708c0.011-0.808,0.141-0.897,0.154-1.78c0.012-0.868,0.012-0.869,0.025-1.737
			c0.012-0.853-0.244-0.675-0.232-1.524c0.012-0.833,0.201-0.968,0.213-1.725c0.012-0.825-0.051-0.782-0.039-1.585
			c0.012-0.803,0.143-0.899,0.153-1.682c0.011-0.784,0.01-0.785,0.021-1.475c0.008-0.446-0.274-0.671-0.561-0.711
			c-0.235-0.033-0.696,0.083-1.079,0.362c-0.833,0.603-0.831,0.663-1.599,1.216c-0.767,0.553-0.768,0.615-1.598,1.206
			c-0.765,0.545-0.767,0.367-1.53,0.907c-0.829,0.587-0.833,0.769-1.598,1.302c-0.828,0.578-0.828,0.517-1.594,1.045
			c-0.763,0.525-0.767,0.588-1.594,1.148c-0.381,0.258-0.701,0.593-1.023,1.108c-0.258,0.412-0.515,0.89-0.52,1.322
			c-0.008,0.669-0.074,0.714-0.083,1.461c-0.009,0.746-0.072,0.787-0.081,1.544c-0.01,0.756,0.055,0.715,0.045,1.48
			c-0.01,0.703,0.122,0.621,0.112,1.386c-0.011,0.778-0.01,0.781-0.019,1.556c-0.009,0.787-0.137,0.873-0.148,1.65
			c-0.01,0.728,0.058,0.691,0.048,1.477c-0.01,0.793,0.054,0.759,0.044,1.559c-0.01,0.8,0.053,0.766,0.044,1.573
			c-0.009,0.741-0.203,0.848-0.21,1.659c-0.008,0.81,0.119,0.743,0.11,1.555c-0.009,0.817-0.203,0.917-0.211,1.736
			c-0.009,0.819,0.18,0.722,0.173,1.478c-0.008,0.821-0.012,0.824-0.019,1.647c-0.008,0.826,0.052,0.798,0.043,1.627
			c-0.009,0.83-0.01,0.828-0.019,1.592c-0.01,0.831-0.071,0.859-0.082,1.689c-0.011,0.827-0.01,0.827-0.019,1.659
			c-0.01,0.831-0.137,0.882-0.147,1.643c-0.011,0.829,0.057,0.805,0.046,1.635c-0.011,0.83-0.137,0.875-0.147,1.699
			c-0.01,0.825,0.243,0.742,0.234,1.5c-0.009,0.826-0.071,0.85-0.081,1.671c-0.01,0.822-0.137,0.865-0.147,1.683
			c-0.01,0.816,0.179,0.762,0.172,1.508c-0.008,0.812-0.008,0.818-0.019,1.628c-0.01,0.81-0.07,0.831-0.081,1.634
			c-0.011,0.801-0.137,0.836-0.146,1.569c-0.01,0.798-0.009,0.8-0.018,1.591C119.733,149.274,119.985,149.632,120.23,149.8z"/>
	</g>
	<g>
		<path class="st0" d="M120.908,92.908c0.277,0.13,0.696,0.08,1.075-0.174c0.764-0.513,0.768-0.513,1.595-1.076
			c0.766-0.521,0.764-0.37,1.531-0.898c0.765-0.527,0.768-0.601,1.535-1.136c0.767-0.533,0.768-0.683,1.536-1.221
			c0.767-0.538,0.768-0.391,1.598-0.978c0.768-0.543,0.767-0.543,1.536-1.09c0.77-0.547,0.769-0.475,1.536-1.025
			c0.768-0.549,0.771-0.697,1.54-1.249c0.769-0.552,0.764-0.405,1.6-1.008c0.763-0.55,0.767-0.767,1.536-1.321
			c0.769-0.554,0.767-0.554,1.54-1.11c0.77-0.556,0.77-0.483,1.539-1.039c0.77-0.556,0.77-0.484,1.604-1.085
			c0.77-0.554,0.772-0.624,1.542-1.176c0.771-0.552,0.768-0.551,1.541-1.102c0.77-0.547,0.772-0.69,1.544-1.237
			c0.773-0.546,0.768-0.408,1.603-0.996c0.77-0.541,0.769-0.476,1.541-1.016c0.764-0.534,0.765-0.535,1.535-1.07
			c0.452-0.313,0.889-0.793,1.168-1.266c0.266-0.452,0.46-1.05,0.469-1.546c0.015-0.849,0.014-0.851,0.031-1.682
			c0.018-0.907-0.111-0.824-0.093-1.776c0.016-0.877,0.143-0.959,0.161-1.964c0.02-1.006,0.018-1.007,0.037-2.056
			c0.018-0.957-0.109-0.883-0.09-1.975c0.011-0.635-0.177-1.004-0.419-1.222c-0.235-0.213-0.567-0.521-1.017-0.266
			c-0.77,0.434-0.774,0.531-1.537,0.968c-0.771,0.441-0.772,0.442-1.542,0.887c-0.77,0.446-0.776,0.545-1.544,0.996
			c-0.773,0.453-0.77,0.351-1.541,0.806c-0.769,0.455-0.773,0.456-1.542,0.913c-0.77,0.459-0.771,0.458-1.542,0.92
			c-0.773,0.462-0.772,0.358-1.541,0.82c-0.771,0.463-0.77,0.357-1.54,0.821c-0.772,0.465-0.772,0.466-1.536,0.928
			c-0.77,0.467-0.771,0.577-1.543,1.044c-0.773,0.469-0.776,0.692-1.544,1.16c-0.453,0.276-0.9,0.327-1.211-0.05
			c-0.247-0.299-0.234-1.233-0.224-1.939c0.021-1.409,0.02-1.415,0.042-2.869c0.022-1.448,0.084-1.486,0.106-2.976
			c0.021-1.367-0.044-1.337-0.021-2.858c0.022-1.521-0.043-1.493-0.019-3.043c0.023-1.551,0.15-1.614,0.173-3.178
			c0.023-1.57-0.041-1.543-0.02-3.002c0.022-1.588,0.087-1.618,0.11-3.217c0.024-1.601,0.022-1.602,0.047-3.208
			c0.024-1.6-0.167-1.532-0.147-3.008c0.021-1.611,0.022-1.614,0.046-3.219c0.025-1.606-0.04-1.589-0.018-3.187
			c0.022-1.591,0.216-1.65,0.237-3.23c0.019-1.449-0.172-1.402-0.149-2.965c0.023-1.563,0.277-1.629,0.299-3.161
			c0.022-1.534-0.106-1.508-0.085-3.004c0.019-1.377,0.149-1.405,0.168-2.87c0.019-1.463,0.022-1.465,0.041-2.884
			c0.019-1.419-0.234-1.381-0.217-2.75c0.018-1.362,0.211-1.387,0.227-2.589c0.017-1.31-0.047-1.305-0.029-2.549
			c0.018-1.245,0.146-1.258,0.162-2.428c0.016-1.17,0.018-1.168,0.03-2.166c0.008-0.637-0.273-1.224-0.56-1.549
			c-0.249-0.284-0.696-0.541-1.086-0.509c-0.838,0.069-0.841,0.153-1.613,0.226c-0.772,0.073-0.775,0.158-1.613,0.25
			c-0.775,0.085-0.77-0.169-1.545-0.075c-0.839,0.103-0.842,0.358-1.616,0.464c-0.836,0.114-0.839,0.03-1.611,0.146
			c-0.778,0.117-0.773,0.203-1.613,0.341c-0.386,0.063-0.71,0.289-1.038,0.794c-0.261,0.402-0.522,0.912-0.529,1.579
			c-0.011,1.046-0.083,1.06-0.097,2.3c-0.014,1.24-0.077,1.257-0.094,2.582c-0.016,1.327,0.049,1.315,0.032,2.723
			c-0.014,1.29,0.119,1.261,0.102,2.727c-0.018,1.473-0.018,1.474-0.035,3.009c-0.019,1.534-0.151,1.567-0.171,3.159
			c-0.018,1.459,0.054,1.44,0.034,3.074c-0.019,1.627,0.044,1.612,0.025,3.284c-0.019,1.67,0.043,1.656,0.023,3.359
			c-0.018,1.562-0.215,1.624-0.237,3.355c-0.022,1.732,0.114,1.687,0.092,3.426c-0.021,1.747-0.218,1.817-0.239,3.579
			c-0.02,1.761,0.176,1.688,0.157,3.305c-0.021,1.763-0.021,1.766-0.042,3.52c-0.021,1.761,0.042,1.738,0.021,3.492
			c-0.021,1.754-0.022,1.756-0.041,3.353c-0.021,1.741-0.083,1.773-0.106,3.496c-0.023,1.717-0.02,1.719-0.041,3.417
			c-0.021,1.696-0.153,1.766-0.173,3.298c-0.021,1.669,0.049,1.634,0.03,3.268c-0.019,1.632-0.154,1.707-0.172,3.29
			c-0.019,1.59,0.243,1.444,0.223,2.859c-0.02,1.541-0.081,1.58-0.1,3.066c-0.019,1.485-0.152,1.568-0.168,2.993
			c-0.016,1.418,0.178,1.3,0.164,2.547c-0.017,1.36-0.016,1.362-0.032,2.647c-0.016,1.282-0.078,1.327-0.093,2.531
			c-0.015,1.199-0.146,1.282-0.16,2.311c-0.015,1.122-0.013,1.124-0.026,2.148C120.404,92.439,120.669,92.796,120.908,92.908z"/>
	</g>
	<g>
		<path class="st0" d="M82.16,154.17c0.238,0.282,0.613,0.654,1.044,0.678c0.743,0.04,0.742-0.094,1.484-0.065
			c0.739,0.029,0.744,0.096,1.484,0.114c0.741,0.018,0.742,0.085,1.485,0.089c0.744,0.005,0.741-0.128,1.485-0.135
			c0.746-0.007,0.743-0.006,1.488-0.024c0.744-0.018,0.743-0.019,1.489-0.047c0.743-0.028,0.747-0.095,1.491-0.135
			c0.746-0.039,0.742,0.092,1.487,0.041c0.747-0.051,0.747-0.05,1.492-0.112c0.746-0.063,0.748-0.127,1.494-0.198
			c0.742-0.071,0.749-0.071,1.495-0.152c0.747-0.081,0.745,0.115,1.555,0.015c0.744-0.092,0.745-0.22,1.495-0.322
			c0.748-0.102,0.746,0.029,1.496-0.082c0.747-0.11,0.749-0.11,1.498-0.23c0.748-0.12,0.751-0.313,1.501-0.442
			c0.754-0.13,0.747,0.002,1.496-0.135c0.75-0.137,0.751-0.073,1.5-0.217c0.751-0.145,0.753-0.402,1.504-0.556
			c0.75-0.153,0.75,0.041,1.501-0.121c0.438-0.095,0.821-0.475,1.068-0.816c0.229-0.317,0.445-0.749,0.45-1.207
			c0.007-0.718-0.054-0.705-0.047-1.487c0.007-0.715,0.006-0.718,0.016-1.5c0.01-0.784,0.07-0.8,0.079-1.52
			c0.01-0.785,0.005-0.785,0.016-1.503c0.011-0.787,0.007-0.788,0.017-1.571c0.005-0.392-0.106-0.87-0.364-1.075
			c-0.239-0.19-0.682-0.333-1.122-0.214c-0.754,0.203-0.753,0.203-1.506,0.395c-0.753,0.193-0.757,0.257-1.445,0.424
			c-0.753,0.183-0.752,0.246-1.502,0.418c-0.752,0.172-0.752,0.112-1.503,0.276c-0.755,0.164-0.753,0.347-1.505,0.5
			c-0.688,0.14-0.689-0.101-1.438,0.042c-0.751,0.144-0.747,0.32-1.499,0.451c-0.752,0.131-0.748,0.132-1.5,0.252
			c-0.751,0.119-0.749,0.18-1.437,0.279c-0.751,0.11-0.747,0.048-1.494,0.146c-0.748,0.098-0.751-0.071-1.496,0.015
			c-0.748,0.086-0.752,0.253-1.497,0.325c-0.373,0.036-0.809-0.089-1.118-0.337c-0.245-0.197-0.432-0.562-0.429-0.938
			c0.006-0.694,0.194-0.716,0.198-1.402c0.003-0.685,0.003-0.685,0.009-1.307c0.005-0.674-0.124-0.66-0.118-1.321
			c0.003-0.356,0.194-0.686,0.442-0.925c0.312-0.3,0.694-0.514,1.064-0.576c0.748-0.123,0.748-0.069,1.498-0.206
			c0.813-0.149,0.811-0.205,1.562-0.356c0.752-0.151,0.747-0.097,1.5-0.261c0.747-0.164,0.748-0.109,1.498-0.287
			c0.75-0.178,0.753-0.232,1.503-0.423c0.752-0.191,0.749-0.25,1.504-0.454c0.753-0.203,0.753-0.203,1.502-0.418
			c0.755-0.216,0.753-0.155,1.506-0.381c0.754-0.226,0.757-0.227,1.507-0.464c0.435-0.137,0.76-0.552,1.009-0.875
			c0.27-0.353,0.635-0.827,0.64-1.197c0.01-0.867,0.008-0.868,0.016-1.666c0.009-0.857,0.01-0.862,0.016-1.658
			c0.007-0.857-0.178-0.783-0.171-1.576c0.008-0.793,0.071-0.819,0.079-1.672c0.004-0.426-0.172-0.701-0.431-0.841
			c-0.236-0.129-0.63-0.142-1.067,0.048c-0.759,0.33-0.755,0.387-1.512,0.702c-0.755,0.314-0.757,0.2-1.509,0.503
			c-0.75,0.301-0.754,0.359-1.507,0.648c-0.755,0.288-0.755,0.346-1.508,0.619c-0.753,0.275-0.754,0.22-1.507,0.481
			c-0.751,0.26-0.753,0.154-1.501,0.399c-0.75,0.245-0.754,0.405-1.505,0.634c-0.753,0.229-0.752,0.129-1.564,0.359
			c-0.751,0.213-0.751,0.314-1.502,0.512c-0.374,0.098-0.687-0.074-0.995-0.244c-0.248-0.137-0.438-0.34-0.435-0.69
			c0.006-0.601-0.12-0.57-0.115-1.173c0.004-0.602-0.059-0.588-0.054-1.2c0.005-0.607,0.067-0.624,0.071-1.25
			c0.002-0.359,0.172-0.751,0.444-1.065c0.247-0.285,0.755-0.657,1.13-0.779c0.813-0.265,0.809-0.054,1.564-0.316
			c0.752-0.263,0.752-0.423,1.507-0.704c0.815-0.305,0.815-0.413,1.569-0.712c0.754-0.299,0.753-0.189,1.505-0.502
			c0.815-0.339,0.817-0.285,1.571-0.617c0.753-0.331,0.754-0.274,1.511-0.62c0.815-0.373,0.822-0.377,1.575-0.736
			c0.756-0.361,0.756-0.533,1.515-0.911c0.821-0.406,0.819-0.232,1.576-0.62c0.755-0.386,0.757-0.447,1.513-0.849
			c0.822-0.435,0.822-0.376,1.58-0.79c0.442-0.241,0.761-0.782,1.02-1.172c0.274-0.415,0.386-0.776,0.391-1.21
			c0.008-0.735,0.259-0.881,0.266-1.563c0.007-0.741-0.243-0.594-0.235-1.331c0.007-0.676,0.323-0.864,0.329-1.6
			c0.006-0.674-0.055-0.635-0.047-1.362c0.007-0.737-0.054-0.7-0.048-1.361c0.005-0.427-0.243-0.638-0.496-0.724
			c-0.317-0.108-0.63-0.154-1.073,0.11c-0.762,0.454-0.764,0.515-1.585,0.99c-0.761,0.441-0.761,0.559-1.518,0.982
			c-0.76,0.426-0.758,0.246-1.58,0.691c-0.76,0.41-0.757,0.471-1.518,0.865c-0.82,0.425-0.821,0.487-1.579,0.865
			c-0.758,0.379-0.756,0.378-1.515,0.739c-0.819,0.391-0.819,0.391-1.575,0.734c-0.753,0.342-0.752,0.402-1.509,0.727
			c-0.817,0.353-0.818,0.171-1.571,0.477c-0.755,0.307-0.753,0.305-1.508,0.593c-0.819,0.311-0.816,0.31-1.569,0.576
			c-0.754,0.266-0.754,0.329-1.568,0.593c-0.753,0.245-0.752,0.185-1.503,0.409c-0.748,0.223-0.748,0.284-1.562,0.504
			c-0.749,0.202-0.75,0.142-1.5,0.322c-0.752,0.18-0.749,0.243-1.561,0.414c-0.747,0.158-0.75,0.159-1.497,0.293
			c-0.75,0.135-0.749,0.074-1.557,0.195c-0.749,0.112-0.746,0.236-1.495,0.324c-0.433,0.052-0.876,0.226-1.118,0.492
			c-0.259,0.285-0.377,0.717-0.378,1.142c-0.003,0.72,0.058,0.713,0.055,1.414c-0.002,0.63-0.192,0.652-0.194,1.32
			c-0.002,0.669,0.122,0.659,0.119,1.302c-0.003,0.643-0.003,0.646-0.006,1.214c-0.003,0.621-0.004,0.623-0.006,1.224
			c-0.002,0.6-0.003,0.604-0.005,1.179c-0.003,0.584-0.19,0.6-0.193,1.116c-0.005,0.571,0.184,0.557,0.182,1.106
			c-0.003,0.552-0.064,0.556-0.067,1.096c-0.002,0.495-0.066,0.5-0.069,1.029c-0.004,0.531,0.123,0.526,0.121,1.048
			c-0.003,0.522,0.06,0.521,0.057,1.037c-0.002,0.476-0.252,0.481-0.254,0.996c-0.002,0.513,0.058,0.514,0.057,1.027
			c-0.002,0.514,0.184,0.514,0.182,0.984c-0.002,0.514-0.124,0.515-0.128,1.034c-0.003,0.519,0.121,0.521,0.118,1.047
			c-0.002,0.526-0.125,0.525-0.128,1.01c-0.003,0.533,0.06,0.535,0.056,1.081c-0.003,0.544-0.064,0.544-0.066,1.1
			c-0.003,0.51,0.12,0.519,0.117,1.091c-0.003,0.57-0.002,0.572-0.006,1.163c-0.003,0.593-0.003,0.592-0.006,1.204
			c-0.003,0.56-0.126,0.553-0.128,1.186c-0.002,0.633,0.118,0.644,0.116,1.301c-0.002,0.661-0.003,0.661-0.006,1.292
			c-0.004,0.687-0.191,0.672-0.194,1.39c-0.003,0.72,0.184,0.734,0.18,1.483c-0.003,0.689-0.253,0.668-0.256,1.455
			C81.545,153.449,81.905,153.868,82.16,154.17z"/>
	</g>
	<g>
		<path class="st0" d="M157.534,137.294c0.281,0.175,0.685,0.223,1.063,0.078c0.758-0.287,0.759-0.288,1.579-0.599
			c0.756-0.287,0.756-0.153,1.513-0.44c0.758-0.288,0.76-0.357,1.518-0.645c0.758-0.288,0.762-0.425,1.515-0.712
			c0.759-0.288,0.756-0.152,1.577-0.463c0.756-0.288,0.76-0.289,1.516-0.575c0.756-0.286,0.752-0.217,1.515-0.506
			c0.757-0.285,0.761-0.423,1.519-0.707c0.757-0.284,0.754-0.148,1.576-0.456c0.758-0.285,0.758-0.486,1.516-0.769
			c0.758-0.282,0.757-0.281,1.516-0.562c0.758-0.281,0.754-0.212,1.514-0.49c0.757-0.278,0.757-0.211,1.577-0.509
			c0.761-0.277,0.757-0.341,1.513-0.615c0.756-0.273,0.757-0.273,1.515-0.543c0.758-0.27,0.76-0.409,1.518-0.676
			c0.758-0.267,0.755-0.129,1.574-0.414c0.758-0.264,0.756-0.196,1.513-0.457c0.753-0.258,0.755-0.26,1.511-0.516
			c0.441-0.15,0.88-0.491,1.144-0.855c0.257-0.357,0.458-0.911,0.467-1.422c0.018-0.879,0.019-0.883,0.036-1.749
			c0.018-0.94-0.106-0.908-0.085-1.909c0.019-0.924,0.143-0.962,0.166-2.026c0.022-1.063,0.02-1.063,0.045-2.177
			c0.022-1.018-0.104-0.975-0.08-2.131c0.014-0.673-0.155-1.097-0.408-1.417c-0.237-0.299-0.55-0.702-0.991-0.553
			c-0.756,0.254-0.76,0.353-1.513,0.612c-0.757,0.259-0.758,0.261-1.514,0.526c-0.757,0.265-0.759,0.365-1.516,0.635
			c-0.758,0.271-0.755,0.173-1.514,0.449c-0.759,0.277-0.759,0.278-1.513,0.556c-0.759,0.28-0.756,0.281-1.516,0.567
			c-0.756,0.285-0.755,0.19-1.516,0.479c-0.759,0.29-0.756,0.194-1.515,0.489c-0.757,0.294-0.76,0.297-1.515,0.592
			c-0.76,0.298-0.761,0.396-1.521,0.697c-0.76,0.303-0.765,0.494-1.522,0.799c-0.443,0.179-0.882,0.167-1.189-0.186
			c-0.246-0.283-0.232-1.056-0.22-1.643c0.024-1.171,0.024-1.176,0.047-2.373c0.023-1.19,0.09-1.22,0.115-2.438
			c0.022-1.116-0.044-1.088-0.019-2.318c0.025-1.228-0.038-1.206-0.013-2.444c0.025-1.24,0.153-1.299,0.179-2.543
			c0.026-1.248-0.042-1.218-0.018-2.365c0.026-1.249,0.091-1.283,0.117-2.533c0.025-1.251,0.028-1.251,0.051-2.496
			c0.024-1.24-0.164-1.146-0.144-2.279c0.022-1.235,0.026-1.238,0.05-2.462c0.026-1.224-0.039-1.193-0.013-2.402
			c0.024-1.204,0.214-1.306,0.239-2.496c0.022-1.093-0.167-0.995-0.143-2.162c0.024-1.169,0.281-1.31,0.304-2.454
			c0.023-1.144-0.105-1.076-0.083-2.189c0.02-1.011,0.151-1.088,0.174-2.182c0.023-1.075,0.022-1.076,0.044-2.133
			c0.022-1.04-0.234-0.894-0.214-1.91c0.021-0.999,0.211-1.109,0.229-1.996c0.02-0.967-0.043-0.932-0.024-1.851
			c0.019-0.921,0.15-0.998,0.167-1.867c0.017-0.869,0.019-0.868,0.034-1.612c0.009-0.48-0.269-0.768-0.552-0.859
			c-0.236-0.076-0.691-0.028-1.076,0.202c-0.832,0.501-0.834,0.563-1.601,1.033c-0.768,0.472-0.771,0.536-1.601,1.056
			c-0.769,0.482-0.767,0.295-1.534,0.784c-0.83,0.53-0.837,0.721-1.605,1.22c-0.833,0.543-0.834,0.479-1.601,0.988
			c-0.768,0.51-0.772,0.573-1.604,1.131c-0.384,0.259-0.707,0.598-1.033,1.136c-0.261,0.43-0.525,0.934-0.532,1.408
			c-0.013,0.733-0.081,0.78-0.097,1.628c-0.016,0.849-0.079,0.894-0.097,1.786c-0.017,0.891,0.049,0.851,0.029,1.782
			c-0.018,0.854,0.113,0.769,0.096,1.726c-0.017,0.972-0.02,0.977-0.038,1.967c-0.018,1.007-0.148,1.095-0.169,2.114
			c-0.019,0.953,0.049,0.911,0.029,1.958c-0.019,1.057,0.043,1.02,0.023,2.098c-0.02,1.08,0.043,1.042,0.022,2.146
			c-0.021,1.014-0.211,1.129-0.233,2.249c-0.022,1.119,0.108,1.044,0.087,2.176c-0.021,1.138-0.214,1.248-0.236,2.398
			c-0.022,1.147,0.173,1.042,0.152,2.104c-0.024,1.16-0.021,1.161-0.043,2.322c-0.022,1.166,0.041,1.134,0.019,2.304
			c-0.021,1.17-0.022,1.174-0.042,2.247c-0.022,1.173-0.083,1.206-0.106,2.374c-0.023,1.163-0.024,1.165-0.043,2.329
			c-0.021,1.164-0.15,1.226-0.17,2.285c-0.023,1.155,0.048,1.123,0.024,2.267c-0.023,1.143-0.149,1.203-0.171,2.325
			c-0.022,1.127,0.233,1.015,0.215,2.032c-0.02,1.109-0.082,1.139-0.102,2.225c-0.02,1.085-0.149,1.143-0.168,2.202
			c-0.019,1.055,0.173,0.977,0.155,1.924c-0.019,1.032-0.019,1.034-0.037,2.031c-0.018,0.997-0.08,1.025-0.098,1.983
			c-0.018,0.955-0.147,1.006-0.161,1.848c-0.015,0.918-0.018,0.923-0.032,1.794C157.04,136.779,157.289,137.141,157.534,137.294z"/>
	</g>
	<g>
		<path class="st0" d="M196.371,48.757c0.811-0.221,0.814-0.268,1.627-0.471c0.813-0.203,0.813-0.204,1.624-0.388
			c0.819-0.186,0.813-0.097,1.624-0.265c0.811-0.166,0.812-0.347,1.62-0.494c0.806-0.147,0.806-0.058,1.611-0.188
			c0.803-0.129,0.804-0.042,1.608-0.155c0.613-0.085,1.126-0.491,1.37-0.906c0.261-0.446,0.255-0.473,0.513-0.915
			c0.24-0.409,0.255-0.413,0.511-0.864c0.253-0.446,0.308-0.431,0.566-0.858c0.242-0.4,0.75-0.687,1.366-0.715
			c0.795-0.034,0.799-0.035,1.532-0.052c0.794-0.019,0.798,0.023,1.527,0.022c0.792-0.001,0.799-0.164,1.528-0.148
			c0.73,0.016,0.73,0.097,1.519,0.13c0.73,0.031,0.729,0.031,1.516,0.082c0.728,0.048,0.726,0.048,1.452,0.111
			c0.784,0.069,0.785,0.145,1.507,0.224c0.781,0.085,0.785-0.026,1.505,0.071c0.781,0.105,0.779,0.142,1.499,0.254
			c0.594,0.094,1.083,0.405,1.303,0.771c0.241,0.401,0.355,0.45,0.589,0.816c0.272,0.423,0.106,0.471,0.344,0.862
			c0.256,0.42,0.35,0.468,0.588,0.889c0.219,0.388,0.768,0.74,1.363,0.866c0.715,0.151,0.714,0.191,1.426,0.358
			c0.713,0.167,0.713,0.089,1.424,0.274c0.709,0.185,0.711,0.185,1.418,0.388c0.705,0.202,0.708,0.283,1.413,0.502
			c0.642,0.2,0.644,0.04,1.347,0.277c0.762,0.256,1.543,0.558,2.28,0.817c0.232,0.081,0.526,0.202,0.643,0.091
			c0.057-0.017,0.117-0.074,0.117-0.152c0.181-0.71-0.69-2.152-1.149-2.954c-0.294-0.493-0.478-0.528-0.753-0.966
			c-0.294-0.469-0.285-0.507-0.521-0.923c-0.252-0.443-0.165-0.485-0.401-0.89c-0.254-0.435-0.291-0.458-0.579-0.901
			c-0.292-0.449-0.291-0.419-0.58-0.856c-0.288-0.437-0.253-0.459-0.523-0.882c-0.233-0.366-0.24-0.418-0.517-0.811
			c-0.293-0.419-0.498-0.478-0.755-0.889c-0.24-0.383-0.292-0.399-0.581-0.824c-0.29-0.428-0.055-0.416-0.347-0.831
			c-0.273-0.388-0.466-0.428-0.757-0.857c-0.288-0.426-0.184-0.421-0.459-0.815c-0.293-0.42-0.406-0.478-0.64-0.858
			c-0.256-0.416-0.129-0.439-0.406-0.841c-0.292-0.422-0.503-0.495-0.757-0.919c-0.235-0.392-0.261-0.442-0.517-0.877
			c-0.24-0.407-0.132-0.427-0.406-0.847c-0.289-0.445-0.286-0.505-0.523-0.908c-0.27-0.456-0.518-0.552-0.758-0.983
			c-0.256-0.459-0.17-0.432-0.459-0.918c-0.238-0.4-0.293-0.736-0.58-1.127c-0.401-0.544-0.876-1.128-1.226-1.744
			c-0.171-0.397-0.283-0.812-0.514-1.244c-0.236-0.438-0.632-0.905-0.938-1.346c-0.232-0.333-0.403-0.754-0.64-1.133
			c-0.634-1.217-1.222-2.169-1.738-3.413c-0.168-0.539-0.398-1.156-0.99-1.636c-2.072-1.75-3.254,0.368-3.871,0.983
			c-0.988,1.191-2.159,2.03-3.214,3.285c-0.318,0.371-0.467,0.287-0.744,0.674c-0.262,0.367-0.195,0.422-0.506,0.808
			c-0.312,0.388-0.313,0.393-0.627,0.793c-0.311,0.397-0.37,0.343-0.682,0.755c-0.313,0.413-0.333,0.413-0.629,0.791
			c-0.319,0.408-0.259,0.437-0.571,0.872c-0.313,0.435-0.439,0.366-0.752,0.815c-0.313,0.449-0.131,0.53-0.446,0.984
			c-0.317,0.458-0.439,0.398-0.755,0.869c-0.318,0.474-0.261,0.481-0.575,0.964c-0.315,0.484-0.258,0.493-0.576,0.989
			c-0.316,0.492-0.502,0.392-0.819,0.903c-0.316,0.509-0.245,0.554-0.511,1.038c-0.286,0.519-0.32,0.528-0.641,1.059
			c-0.321,0.533-0.324,0.534-0.642,1.08c-0.317,0.544-0.254,0.561-0.581,1.102c-0.305,0.505-0.256,0.553-0.576,1.117
			c-0.322,0.567-0.445,0.482-0.766,1.055c-0.323,0.576-0.135,0.669-0.463,1.237c-0.305,0.53-0.417,0.55-0.707,1.133
			c-0.271,0.545-0.381,0.566-0.708,1.149c-0.306,0.545-0.145,0.614-0.456,1.164c-0.331,0.588-0.447,0.578-0.772,1.183
			c-0.324,0.606-0.355,0.615-0.649,1.215c-0.272,0.555-0.196,0.578-0.52,1.181c-0.327,0.607-0.454,0.596-0.774,1.198
			C195.442,48.687,195.813,48.909,196.371,48.757z M213.535,35.831c0.187-0.384,0.137-0.834,0.506-1.189
			c0.132-0.142,0.31-0.24,0.436-0.38c0.186-0.212,0.201-0.493,0.255-0.754c0.083-0.402,0.287-0.827,0.509-1.173
			c0.191-0.297,0.499-0.569,0.684-0.879c0.309-0.517,0.322-1.135,0.933-1.442c0.185-0.147,0.549-0.204,0.847-0.086
			c0.481,0.238,0.545,0.639,0.59,0.902c0.063,0.372,0.109,0.731,0.34,1.156c0.182,0.228,0.334,0.546,0.413,0.72
			c0.064,0.142,0.113,0.353,0.17,0.512c0.114,0.425,0.305,0.836,0.524,1.234c0.296,0.539,0.584,1.123,0.935,1.689
			c0.177,0.283,0.355,0.601,0.588,0.928c0.061,0.081,0.174,0.21,0.174,0.315c0.054,0.502-1.627,0.039-2.11-0.034
			c-0.722-0.108-0.725-0.074-1.383-0.162c-0.664-0.089-0.663-0.166-1.33-0.246c-0.727-0.086-0.731-0.007-1.397-0.074
			c-0.668-0.067-0.969-0.133-1.639-0.187C212.728,36.615,213.411,36.021,213.535,35.831z"/>
	</g>
	<g>
		<path class="st0" d="M147.586,159.949c-1.934,3.004-3.058,6.26-3.304,9.553c-0.201,2.698,0.566,3.6,2.154,2.909
			c1.713-0.746,3.187-2.414,4.485-5.104c0.457-0.928,0.998-2.101,1.217-3.26c0.674-3.58,1.033-7.721,1.91-10.899
			C151.689,154.664,149.52,156.942,147.586,159.949z"/>
	</g>
	<g>
		<path class="st0" d="M280.47,90.419c-4.865-14.685-15.687-26.212-28.763-34.822c-1.685-1.109-5.377-3.136-8.361-4.157
			c-1.233-0.422-2.101,1.214-1.071,2.011c1.141,0.883,2.383,1.639,3.536,2.542c1.982,1.551,3.727,3.563,5.402,5.433
			c6.706,7.488,18.391,22.412,8.263,48.703c-1.332,3.459-3.339,6.729-6.348,9.612c-0.317,0.303-0.79,0.398-1.199,0.242
			c-0.98-0.373-1.863-0.486-2.542-0.489c-1.021-0.004-2.024,0.209-2.989,0.645c-0.804,0.359-1.492,0.881-2.061,1.562
			c-0.149,0.178-0.34,0.31-0.564,0.372c-0.368,0.103-0.742,0.228-1.127,0.378c-0.729,0.279-1.439,0.61-2.129,0.99
			c-0.787,0.434-1.749-0.151-1.709-1.048c0.026-0.567,0.02-1.125-0.017-1.672c-0.106-1.594-0.483-2.961-1.112-4.114
			c0.065-0.027,0.122-0.063,0.159-0.121c0.061-0.049,0.125-0.148,0.124-0.249c0.192-1.009-0.733-2.912-1.216-4.225
			c-0.303-0.798-0.506-0.742-0.794-1.518c-0.315-0.844-0.285-0.897-0.543-1.773c-0.264-0.897-0.156-1.034-0.418-1.967
			c-0.266-0.952-0.304-0.975-0.603-1.987c-0.301-1.019-0.3-0.931-0.598-1.983c-0.298-1.052-0.263-1.161-0.537-2.236
			c-0.248-0.973-0.255-1.101-0.533-2.106c-0.306-1.105-0.517-1.052-0.777-2.173c-0.256-1.107-0.298-1.039-0.593-2.195
			c-0.295-1.158-0.038-1.372-0.342-2.528c-0.277-1.054-0.478-0.973-0.772-2.155c-0.294-1.183-0.184-1.295-0.462-2.359
			c-0.306-1.174-0.389-1.122-0.647-2.275c-0.258-1.157-0.123-1.401-0.398-2.463c-0.304-1.169-0.511-1.118-0.764-2.262
			c-0.255-1.145-0.263-1.2-0.517-2.339c-0.253-1.134-0.125-1.271-0.397-2.3c-0.3-1.136-0.274-1.268-0.519-2.277
			c-0.269-1.111-0.509-1.071-0.76-2.144c-0.254-1.081-0.172-1.106-0.455-2.178c-0.233-0.884-0.278-1.744-0.573-2.513
			c-0.397-1.035-0.877-2.071-1.225-3.236c-0.169-0.798-0.281-1.676-0.508-2.43c-0.229-0.763-0.644-1.459-0.94-2.071
			c-0.25-0.517-0.405-1.187-0.641-1.712c-0.636-1.809-1.226-2.975-1.745-4.402c-0.174-0.652-0.401-1.294-1.007-1.568
			c-2.107-1.033-3.329,2.328-3.968,3.754c-1.025,2.607-2.238,5.197-3.355,8.699c-0.329,1.034-0.482,0.975-0.78,2.05
			c-0.285,1.036-0.204,1.057-0.535,2.178c-0.331,1.123-0.331,1.123-0.663,2.278c-0.333,1.151-0.39,1.064-0.722,2.247
			c-0.333,1.186-0.35,1.198-0.665,2.29c-0.345,1.196-0.272,1.206-0.604,2.435c-0.332,1.228-0.459,1.151-0.793,2.402
			c-0.334,1.254-0.149,1.328-0.486,2.594c-0.337,1.265-0.461,1.184-0.795,2.464c-0.335,1.282-0.278,1.272-0.613,2.553
			c-0.337,1.287-0.273,1.277-0.611,2.569c-0.337,1.287-0.52,1.114-0.857,2.406c-0.338,1.295-0.256,1.318-0.549,2.551
			c-0.3,1.26-0.34,1.296-0.677,2.576c-0.337,1.277-0.341,1.281-0.677,2.552c-0.336,1.271-0.264,1.277-0.611,2.513
			c-0.318,1.133-0.275,1.237-0.611,2.472c-0.336,1.237-0.459,1.061-0.796,2.275c-0.337,1.215-0.142,1.387-0.488,2.55
			c-0.318,1.067-0.434,1.132-0.734,2.253c-0.294,1.1-0.39,1.096-0.732,2.19c-0.318,1.013-0.165,1.167-0.481,2.14
			c-0.345,1.058-0.461,1.023-0.792,2.053c-0.331,1.029-0.368,1.062-0.665,2.013c-0.288,0.921-0.206,0.943-0.537,1.865
			c-0.332,0.925-0.464,0.896-0.787,1.758c-0.266,0.71,0.104,1.046,0.669,0.87c0.817-0.255,0.822-0.321,1.637-0.569
			c0.818-0.249,0.817-0.249,1.635-0.492c0.82-0.243,0.817-0.116,1.635-0.353c0.818-0.237,0.822-0.495,1.639-0.724
			c0.815-0.228,0.815-0.099,1.63-0.321c0.113-0.031,0.208-0.054,0.295-0.073c-0.514,0.603-1.012,1.237-1.475,1.937
			c-1.174,1.767-2.161,3.805-3.014,6.246c-0.256,0.741-0.497,1.496-0.723,2.267c-0.188,0.642-0.882,0.962-1.514,0.744
			c-0.917-0.317-1.904-0.482-2.944-0.487c-0.566-0.002-1.162,0.043-1.796,0.142c-2.407,0.386-4.634,1.432-6.606,3.108
			c-0.618,0.524-1.209,1.112-1.777,1.75c-0.133,0.15-0.302,0.263-0.493,0.325c-0.48,0.154-0.964,0.312-1.455,0.475
			c-0.34,0.113-0.722,0.084-1.023-0.111c-0.795-0.515-1.756-0.836-2.927-0.841l-0.697,0.011l-0.557,0.128
			c-0.404,0.092-0.796,0.226-1.176,0.403c-0.434,0.202-0.947,0.126-1.295-0.203c-1.439-1.362-3.048-1.633-4.077-1.637
			c-0.741-0.003-1.491,0.124-2.243,0.387c-2.608,0.92-4.542,2.688-5.656,5.12c-0.259,0.565-0.903,0.807-1.487,0.594
			c-0.754-0.275-1.552-0.417-2.378-0.421c-0.949-0.004-1.903,0.181-2.849,0.554c-0.956,0.381-1.713,0.96-2.322,1.622
			c-0.156,0.169-0.349,0.288-0.571,0.344c-0.574,0.144-1.169,0.342-1.784,0.594c-1.726,0.704-3.415,1.689-5.023,2.936
			c-1.622,1.261-3.295,3.079-5.126,5.588c-0.221,0.304-0.438,0.613-0.649,0.925c-0.304,0.449-0.879,0.657-1.375,0.438
			c-0.731-0.322-1.627-0.542-2.713-0.547c-1.47-0.006-3.118,0.375-5,1.203c-0.173,0.076-0.366,0.118-0.553,0.095
			c-0.321-0.039-0.715-0.118-1.195-0.219c-0.716-0.148-1.427-0.229-2.114-0.232c-1.133-0.005-2.213,0.194-3.226,0.591
			c-2.633,1.044-4.819,2.864-6.495,5.412c-0.153,0.234-0.271,0.473-0.38,0.713c-0.216,0.474-0.732,0.717-1.246,0.633
			c-0.352-0.058-0.728-0.093-1.138-0.095c-1.329-0.006-2.867,0.281-4.453,0.872c-0.185,0.069-0.387,0.098-0.581,0.059
			c-0.337-0.069-0.75-0.184-1.246-0.334c-1.02-0.305-2.021-0.464-2.975-0.468c-0.842-0.004-1.656,0.109-2.383,0.333
			c-2.563,0.75-4.775,2.312-6.449,4.538c-0.196,0.261-0.491,0.44-0.815,0.479c-0.823,0.099-1.601,0.183-2.337,0.254
			c-0.219,0.021-0.43-0.025-0.625-0.127c-0.529-0.276-1.114-0.535-1.793-0.767c-1.112-0.382-2.326-0.577-3.71-0.583
			c-0.784-0.003-1.641,0.056-2.576,0.178c-1.824,0.243-3.504,0.753-5.066,1.474c-0.155,0.072-0.318,0.108-0.488,0.102
			c-0.251-0.009-0.509-0.018-0.775-0.029c-0.766-0.032-1.296-0.792-1.056-1.52c1.133-3.434,1.915-6.261,2.412-8.713
			c1.222-6.084,0.544-10.361-2.068-13.078c-1.123-1.167-3.15-2.565-6.432-2.579c-0.402-0.002-0.829,0.026-1.268,0.068
			c0.355-0.493,0.66-1.06,1.054-1.639c0.412-0.606,0.782-1.489,1.205-2.272c0.426-0.789,0.922-1.474,1.278-2.442
			c0.357-0.967,0.595-2.244,0.859-3.238c0.297-1.123,0.854-2.118,1.07-3.315c0.216-1.199,0.191-2.707,0.369-3.925
			c0.172-1.179,0.405-2.737,0.511-3.97c0.117-1.369,0.294-2.755,0.371-4.233c0.077-1.487,0.152-2.988,0.159-4.482
			c0.006-1.494-0.136-2.98-0.195-4.284c-0.076-1.679,0.001-3.276-0.126-4.575c-0.146-1.494-0.271-3.034-0.48-4.336
			c-0.209-1.304-0.559-2.368-0.839-3.658c-0.279-1.289-0.591-2.401-0.91-3.46c-0.369-1.221-0.556-2.793-0.909-3.67
			c-0.422-1.049-1.01-1.458-1.411-2.102c-0.495-0.794-0.914-1.525-1.41-2.1c-0.527-0.61-0.737-2.369-0.769-3.695
			c-0.036-1.533,0.011-3.556,0.508-4.727c0.499-1.171,0.929-2.518,1.359-3.866c0.43-1.347,0.84-2.745,1.152-4.188
			c0.318-1.475,0.675-3.226,0.94-4.869c0.232-1.428,0.298-3.23,0.444-4.817c0.146-1.587,0.475-3.302,0.516-4.961
			c0.036-1.469-0.059-3.142-0.055-4.779c0.004-1.456,0.008-2.905-0.056-4.28c-0.073-1.547-0.134-2.903-0.273-4.195
			c-0.138-1.282-0.293-2.542-0.489-3.565c-0.223-1.169-0.564-2.118-0.849-3.043c-0.286-0.926-0.55-1.876-0.921-2.646
			c-0.327-0.68-0.855-0.979-1.351-1.509c-0.42-0.448-0.936-0.953-1.351-1.236c-0.43-0.292-0.932-0.647-1.491-0.757
			c-0.468-0.093-1.013-0.339-1.563-0.357c-0.49-0.016-1.06-0.132-1.627,0.01c-0.57,0.143-1.185,0.581-1.699,0.767
			c-0.53,0.191-1.171,0.08-1.763,0.423c-0.523,0.302-1.163,0.618-1.689,0.927c-0.518,0.304-1.191,0.993-1.753,1.372
			c-0.837,0.566-0.836,0.47-1.745,1.087c-0.839,0.569-0.839,0.665-1.673,1.235c-0.833,0.57-0.834,0.39-1.736,1.012
			c-0.836,0.576-0.835,0.754-1.661,1.325c-0.825,0.571-0.831,0.487-1.723,1.107c-0.822,0.573-0.826,0.576-1.648,1.146
			c-0.82,0.569-0.822,0.491-1.706,1.107c-0.818,0.571-0.82,0.733-1.634,1.298c-0.816,0.567-0.817,0.568-1.695,1.176
			c-0.81,0.56-0.812,0.644-1.62,1.199c-0.809,0.558-0.809,0.481-1.678,1.077c-0.804,0.551-0.805,0.411-1.604,0.958
			c-0.465,0.319-0.992,0.874-1.266,1.349c-0.264,0.459-0.398,1.133-0.401,1.685c-0.006,0.947-0.137,1.034-0.143,2.091
			c-0.006,0.971,0.061,0.932,0.056,2.095c-0.005,1.159,0.065,1.125,0.059,2.385c-0.006,1.261-0.005,1.266-0.011,2.502
			c-0.006,1.345-0.007,1.349-0.012,2.772c-0.005,1.425,0.06,1.399,0.054,2.89c-0.007,1.498-0.207,1.57-0.214,2.992
			c-0.008,1.549,0.261,1.472,0.254,3.082c-0.006,1.611-0.073,1.629-0.08,3.278c-0.006,1.518-0.141,1.545-0.15,3.234
			c-0.009,1.687,0.198,1.662,0.188,3.387c-0.01,1.724-0.141,1.741-0.148,3.486c-0.007,1.594-0.008,1.598-0.014,3.36
			c-0.007,1.764,0.059,1.767,0.052,3.543c-0.008,1.776-0.075,1.775-0.082,3.405c-0.007,1.771-0.076,1.766-0.085,3.538
			c-0.009,1.772,0.064,1.788,0.055,3.554c-0.008,1.765-0.008,1.767-0.015,3.371c-0.007,1.749-0.079,1.73-0.085,3.445
			c-0.007,1.723,0.197,1.791,0.19,3.486c-0.006,1.555-0.074,1.532-0.081,3.183c-0.007,1.651-0.213,1.563-0.219,3.151
			c-0.007,1.594,0.199,1.696,0.193,3.108c-0.008,1.538-0.074,1.508-0.081,2.975c-0.007,1.466,0.061,1.51,0.055,2.898
			c-0.006,1.383-0.074,1.339-0.079,2.529c-0.005,1.298-0.077,1.252-0.081,2.444c-0.003,1.194,0.064,1.245,0.061,2.322
			c-0.003,0.986-0.072,0.941-0.079,1.892c-0.004,0.55,0.405,1.246,0.677,1.75c0.276,0.513,0.61,1.047,1.088,1.411
			c0.821,0.623,0.817,0.619,1.641,1.207c0.754,0.536,0.753,0.539,1.575,1.087c0.823,0.55,0.819,0.696,1.646,1.212
			c0.417,0.26,0.623,0.348,0.831,0.433c-0.709,0.545-1.4,1.153-2.072,1.838c-0.42,0.428-1.097,0.44-1.558,0.058
			c-1.779-1.472-4.083-2.279-6.757-2.291c-0.59-0.003-1.21,0.033-1.845,0.113c-2.151,0.262-4.165,0.875-6.026,1.814
			c-0.542,0.274-1.202,0.061-1.517-0.457c-5.224-8.586-11.401-26.204,7.903-43.95c0.598-0.549-0.06-1.505-0.779-1.128
			c-11.414,5.982-29.739,25.404-29.862,53.542c-0.151,34.602,21.774,62.553,81.765,61.667c27.45-0.405,42.739-2.995,67.545-13.746
			c12.127-5.256,35.153-14.854,47.845-18.612c15.841-4.69,34.987-7.024,50.599-12.034c17.82-5.718,28.758-18.635,33.289-37.367
			C284.219,117.419,284.76,103.367,280.47,90.419z M212.372,97.306c0.209-1.098,0.165-2.282,0.558-3.429
			c0.136-0.452,0.323-0.807,0.456-1.258c0.198-0.683,0.225-1.46,0.289-2.225c0.101-1.201,0.317-2.471,0.56-3.582
			c0.219-0.998,0.529-1.929,0.733-2.934c0.34-1.68,0.371-3.42,1.009-4.772c0.197-0.559,0.573-1.02,0.88-0.934
			c0.485,0.279,0.537,1.36,0.576,2.102c0.056,1.058,0.085,2.05,0.316,3.116c0.177,0.531,0.297,1.238,0.4,1.822
			c0.07,0.397,0.11,0.971,0.163,1.405c0.101,1.193,0.283,2.278,0.498,3.34c0.297,1.477,0.571,2.989,0.916,4.458
			c0.173,0.735,0.344,1.575,0.578,2.399c0.06,0.204,0.179,0.513,0.174,0.825c0.038,1.459-1.691,1.087-2.184,1.136
			c-0.747,0.074-0.746,0.18-1.426,0.257c-0.684,0.079-0.68-0.135-1.364-0.047c-0.748,0.095-0.749,0.309-1.431,0.407
			c-0.685,0.098-0.994,0.039-1.68,0.147C211.522,99.673,212.241,97.861,212.372,97.306z M206.495,118.672
			c0.245-0.696,0.264-0.709,0.53-1.541c0.264-0.829,0.315-0.78,0.591-1.639c0.25-0.779,0.772-1.415,1.399-1.546
			c0.816-0.172,0.815-0.171,1.564-0.321c0.814-0.162,0.81-0.079,1.563-0.22c0.811-0.153,0.819-0.491,1.568-0.621
			c0.749-0.131,0.747,0.039,1.558-0.094c0.75-0.122,0.747-0.123,1.56-0.245c0.748-0.112,0.75-0.112,1.498-0.216
			c0.807-0.111,0.808,0.052,1.555-0.043c0.81-0.101,0.811-0.343,1.56-0.425c0.809-0.088,0.811-0.008,1.554-0.081
			c0.62-0.06,1.127,0.391,1.352,1.047c0.248,0.723,0.353,0.749,0.602,1.344c0.068,0.162,0.108,0.291,0.135,0.404
			c-1.898,1.001-3.601,2.398-5.096,4.184c-0.294-0.297-0.588-0.545-0.873-0.754c-1.375-1.003-3.009-1.514-4.844-1.522
			c-0.591-0.003-1.22,0.048-1.898,0.161c-2.196,0.375-4.194,1.19-5.984,2.43C206.419,118.888,206.453,118.791,206.495,118.672z
			 M48.437,63.097c0.004-2.209,0.003-2.214,0.006-4.329c0.002-0.909,0.003-1.952,0.345-2.843c0.274-0.71,0.761-1.382,1.243-1.611
			c0.896-0.423,0.897-0.425,1.796-0.856c0.969-0.464,0.969-0.156,1.872-0.59c0.899-0.432,0.905-0.901,1.814-1.345
			c0.557-0.273,1.174-0.288,1.603-0.308c0.525-0.025,1.075,0.267,1.467,0.569c0.487,0.376,0.84,1.064,1.12,1.936
			c0.28,0.873,0.66,1.77,0.768,3.046c0.096,1.132,0.205,2.521,0.202,3.936c-0.002,1.416-0.082,2.888-0.216,4.206
			c-0.152,1.491-0.407,2.74-0.71,3.899c-0.31,1.187-0.878,2.134-1.335,2.843c-0.423,0.653-0.928,1.095-1.537,1.601
			c-0.384,0.319-0.979,0.849-1.536,1.02c-0.905,0.278-0.977,0.755-1.808,1.079c-0.813,0.318-0.905,0.076-1.734,0.306
			c-0.898,0.249-0.9,0.249-1.797,0.482c-0.482,0.125-0.859-0.547-1.171-1.223c-0.267-0.578-0.407-1.571-0.405-2.742
			c0.003-2.328-0.204-2.268-0.201-4.532C48.225,65.379,48.432,65.299,48.437,63.097z M48.135,117.618
			c0.007-2.075,0.14-2.062,0.145-4.201c0.004-2.139,0.074-2.137,0.08-4.154c0.006-2.184-0.206-2.198-0.2-4.412
			c0.003-1.192,0.35-2.046,0.696-2.915c0.274-0.688,0.618-1.053,1.104-1.07c0.831-0.03,0.832-0.556,1.592-0.607
			c0.832-0.055,0.829,0.123,1.66,0.049c0.766-0.067,0.763-0.068,1.599-0.161c0.767-0.085,0.768,0.095,1.602-0.016
			c0.695-0.092,1.33-0.361,1.882-0.276c0.614,0.093,1.182,0.828,1.674,1.409c0.54,0.638,1.026,1.557,1.394,2.753
			c0.373,1.214,0.545,2.734,0.689,4.363c0.128,1.448,0.416,2.892,0.41,4.717c-0.005,1.454-0.08,2.729-0.148,3.987
			c-0.077,1.425-0.303,2.69-0.498,3.74c-0.224,1.211-0.633,2.129-1.054,2.977c-0.345,0.696-0.966,1.183-1.402,1.559
			c-0.414,0.357-0.923,0.49-1.465,0.656c-0.479,0.148-0.976,0.468-1.531,0.442c-0.837-0.039-0.836-0.039-1.6-0.101
			c-0.835-0.067-0.835-0.069-1.598-0.156c-0.829-0.094-0.831,0.057-1.66-0.069c-0.763-0.117-0.762-0.267-1.591-0.421
			c-0.48-0.089-1.048-0.389-1.31-1.015c-0.303-0.721-0.478-1.913-0.477-2.992C48.13,119.7,48.128,119.693,48.135,117.618z
			 M97.01,190.608c-1.071,1.304-2.238,2.085-3.518,2.376c-1.275,0.29-2.351,0.415-3.23,0.39c-2.338,3.543-5.1,5.324-8.33,5.69
			c-3.23,0.366-5.642-0.328-7.234-2.086c-1.597-1.757-2.338-4.168-2.32-7.176c0.001-0.217,0.037-0.423,0.044-0.639
			c-1.08,1.199-2.191,2.262-3.397,3.165c-1.421,1.061-2.842,1.667-4.329,1.902c-1.457,0.215-2.589-0.237-3.456-1.38
			c-0.906-1.198-1.355-2.617-1.332-4.217c0.024-1.714,0.33-3.659,0.909-5.783c0.593-2.149,1.332-4.516,2.199-7.034l0.693-1.978
			c1.984-5.664,3.417-9.756,3.885-12.193c0.223-1.18,0.268-2.116,0.129-2.782c-0.171-0.827-0.818-1.239-1.734-1.097
			c-0.064,0.008-0.131,0.021-0.197,0.036c-1.254,0.276-2.659,1.375-4.284,3.352c-1.644,1.996-3.251,4.425-4.778,7.216
			c-4.037,7.31-5.967,13.166-5.897,17.903c0.005,0.461,0.062,0.967,0.119,1.468l0.056,0.519c0.063,0.638,0.103,1.325,0.121,2.038
			c0.022,1.381-0.445,2.575-1.39,3.549c-0.941,0.975-2.014,1.301-3.282,1.002c-0.873-0.206-1.417-1.06-1.714-1.739
			c-0.479-1.083-0.734-2.313-0.77-3.649c-0.042-1.453,0.253-3.306,0.865-5.51c0.63-2.262,1.425-4.763,2.428-7.647
			c2.979-8.567,4.469-13.909,4.83-17.322c0.211-1.99,0.118-3.584-0.275-4.736c-0.31-0.897-1.078-1.909-2.981-1.645
			c-2.302,0.293-4.699,2.328-7.331,6.143c-2.239,3.245-4.634,7.973-7.122,14.05c-1.662,4.001-0.98,8.213-0.697,12.403
			c0.027,0.399,0.049,0.822-0.14,1.174c-0.342,0.638-1.199,0.764-1.921,0.713c-4.105-0.287-8.012-4.126-7.746-8.367
			c0.087-1.393,0.726-3.002,1.789-5.67c0.859-2.154,2.033-5.106,3.383-9.172c1.037-3.119,1.532-5.466,1.542-6.069
			c0.044-2.115-0.372-3.613-1.233-4.448c-0.511-0.494-1.178-0.732-1.924-0.693c-0.675,0.043-1.297,0.253-1.856,0.634
			c-0.48,0.328-0.962,0.669-1.438,1.003c-0.458,0.325-0.941,0.625-1.432,0.89c-0.422,0.224-0.906,0.326-1.486,0.309
			c-0.198-0.007-0.498-0.016-0.505-0.906c-0.013-1.691,0.888-3.286,2.761-4.876c2.022-1.718,4.38-2.758,7.069-3.087
			c3.663-0.452,5.995,1.112,6.741,4.511c0.199,1.06,0.339,2.206,0.419,3.409l0.112,1.77l0.8-1.582
			c3.278-6.477,6.757-9.953,10.902-10.867c0.214-0.047,0.433-0.088,0.654-0.123c2.663-0.407,4.729-0.036,6.138,1.108
			c1.352,1.098,2.106,2.921,2.245,5.427c0.117,1.511,0.046,3.226-0.225,5.202l-0.328,2.545l1.153-1.733
			c3.102-4.661,6.403-7.296,9.843-7.865c1.93-0.313,3.365,0.004,4.268,0.942c1.384,1.437,1.644,4.353,0.778,8.665
			c-0.606,3.001-1.714,6.731-3.491,11.735c-1.21,3.405-2.248,6.536-3.171,9.572c-0.558,1.836-0.883,3.325-0.972,4.429
			c-0.101,1.314,0.091,2.184,0.591,2.662c0.22,0.207,0.608,0.44,1.222,0.367c1.023-0.222,2.42-1.698,5.945-5.778
			c0.432-0.972,0.932-1.912,1.528-2.801c2.241-3.343,5.187-5.124,8.835-5.606c1.662-0.219,3.005-0.178,4.009,0.173
			c1.744,0.593,2.608,1.258,2.595,2.046c-0.01,0.604-1.244,1.177-3.695,1.592c-2.445,0.416-4.501,1.744-6.154,4.054
			c-1.652,2.31-2.482,5.074-2.502,8.205c-0.01,1.641,0.369,2.947,1.138,3.932c0.764,0.985,1.859,1.384,3.28,1.203
			c1.416-0.18,2.593-0.694,3.538-1.535c-2.07-1.303-3.062-3.672-3.056-7.031c0.003-1.768,0.519-3.503,1.584-5.148
			c1.063-1.641,2.427-2.613,4.075-2.931c1.648-0.314,2.823,0.018,3.513,1.034c0.69,1.017,1.01,2.445,0.975,4.256
			c-0.035,1.811-0.406,3.778-1.113,5.848c0.105-0.023,0.158-0.035,0.264-0.058c1.3-0.32,2.424-1.136,3.391-2.457
			c0.364-0.522,0.672-0.981,0.929-1.376c0.262-0.393,0.525-0.624,0.79-0.693c0.413-0.107,0.607,0.447,0.582,1.639
			C98.639,187.581,98.082,189.304,97.01,190.608z M119.594,178.758c-0.062,1.36-0.439,2.804-1.126,4.323
			c-0.682,1.517-1.598,2.945-2.755,4.294c-2.544,2.976-5.549,4.974-9.091,6.134c-1.438,0.471-2.682,0.678-3.739,0.625
			c-1.057-0.054-1.815-0.192-2.265-0.403c-0.454-0.21-0.681-0.621-0.677-1.245c0.004-0.623,0.002-1.703,0.336-2.63
			c0.271-0.755,1.173-1.822,2.182-2.989c1.004-1.166,2.012-2.392,3.033-3.68c1.015-1.283,1.92-2.551,2.711-3.796
			c0.791-1.242,1.208-2.354,1.246-3.327c0.015-0.374-0.675-0.327-2.076,0.118c-2.954,1.137-4.432,1.678-7.38,2.674
			c-0.774,0.209-1.339,0.064-1.695-0.422c-0.353-0.484-0.528-1.108-0.509-1.866c0.043-1.734,0.595-3.386,1.662-4.964
			c1.072-1.576,2.459-2.619,4.134-3.114c0.712-0.211,1.574-0.162,2.545,0.129c0.976,0.293,1.747,0.476,2.323,0.551
			c0.575,0.075,1.165,0.015,1.765-0.181c3.543-1.157,5.273-1.009,5.196,0.6c-0.043,0.9-0.367,2.473-0.969,4.705
			c-2.928,6.513-5.704,11.145-8.444,14.089c1.284-0.044,2.515-0.274,3.688-0.676c1.172-0.403,2.27-1.15,3.305-2.258
			c1.03-1.106,1.94-2.275,2.739-3.503c0.799-1.228,1.473-2.345,2.026-3.331c0.547-0.985,0.989-1.548,1.314-1.672
			C119.483,176.784,119.655,177.404,119.594,178.758z M259.161,141.553c-0.372,1.525-0.945,2.988-1.716,4.384
			c-0.776,1.401-1.69,2.627-2.73,3.696c-1.04,1.072-2.083,1.803-3.109,2.226c-1.399,0.576-2.323-0.375-3.048-3.281
			c-0.589,1.686-1.453,3.122-2.574,4.343c-1.115,1.217-2.661,2.099-4.631,2.649c-1.97,0.55-3.586,0.324-4.887-0.741
			c-0.654-0.537-1.156-1.215-1.52-2.028c-0.227,0.4-0.443,0.805-0.712,1.182c-0.804,1.132-1.763,2.081-2.873,2.873
			c-1.106,0.794-2.267,1.279-3.465,1.496c-4.183,0.758-7.18-0.268-9.003-3.561c-0.082-0.149-0.125-0.363-0.199-0.525
			c-0.42,0.939-0.855,1.87-1.499,2.679c-0.833,1.05-1.818,1.916-2.956,2.626c-1.133,0.713-2.322,1.129-3.552,1.289
			c-4.293,0.558-7.374-0.492-9.155-3.766c-0.166-0.307-0.266-0.718-0.395-1.083c-0.399,0.925-0.921,1.841-1.679,2.744
			c-2.417,2.873-5.883,4.426-10.332,5.15c-3.534,0.575-6.005-0.117-7.297-2.592c-0.041-0.078-0.055-0.215-0.092-0.3
			c-0.244,0.426-0.482,0.852-0.779,1.28c-1.694,2.441-3.663,3.786-5.872,4.331c-1.304,0.322-2.304,0.079-2.944-0.872
			c-0.635-0.95-0.94-2.295-0.869-4.047c0.142-3.483,1.096-7.301,2.536-11.043c-0.585,0.48-1.228,0.818-1.915,1.017
			c-0.692,0.201-1.175,0.312-1.465,0.332c-0.355,1.459-0.719,2.924-1.077,4.38c-0.357,1.456-0.587,2.755-0.68,3.9
			c-0.113,2.51-0.147,3.727-0.121,5.982c-0.024,0.751-0.375,1.508-1.068,2.303c-0.697,0.794-1.616,1.387-2.772,1.802
			c-0.673,0.242-1.145,0.043-1.382-0.645c-0.238-0.688-0.324-1.808-0.219-3.442c0.04-0.621,0.123-1.143,0.177-1.734
			c-0.607,1.197-1.267,2.367-2.091,3.473c-0.965,1.294-2.007,2.432-3.146,3.448c-1.14,1.019-2.242,1.736-3.317,2.174
			c-1.465,0.596-2.455-0.297-2.779-3.136c-0.808,1.71-1.795,3.203-2.993,4.536c-1.193,1.328-2.771,2.393-4.758,3.247
			c-1.987,0.854-3.595,0.927-4.781,0.092c-0.678-0.479-1.073-1.235-1.314-2.147c-0.544,0.934-1.145,1.85-1.871,2.732
			c-2.526,3.08-5.478,5.251-8.969,6.708c-1.417,0.591-2.644,0.917-3.686,0.97c-1.042,0.054-1.789-0.001-2.23-0.161
			c-0.446-0.158-0.665-0.541-0.652-1.161c0.013-0.62,0.031-1.691,0.375-2.647c0.289-0.801,1.194-1.936,2.213-3.197
			c1.014-1.258,2.036-2.571,3.071-3.939c1.03-1.362,1.951-2.693,2.761-3.989c0.809-1.292,1.25-2.422,1.317-3.386
			c0.025-0.37-0.649-0.274-2.033,0.286c-2.926,1.377-4.394,2.058-7.334,3.379c-0.77,0.295-1.325,0.219-1.663-0.218
			c-0.336-0.435-0.492-1.031-0.452-1.781c0.091-1.718,0.684-3.42,1.785-5.102c1.106-1.681,2.504-2.864,4.173-3.523
			c0.708-0.279,1.556-0.314,2.501-0.115c0.95,0.201,1.701,0.317,2.262,0.344c0.561,0.026,1.139-0.079,1.731-0.318
			c3.496-1.409,5.164-1.34,5.039,0.255c-0.07,0.892-0.436,2.464-1.09,4.705c-3.047,6.607-5.874,11.395-8.622,14.558
			c1.26-0.158,2.47-0.486,3.623-0.972c1.154-0.486,2.239-1.301,3.272-2.462c1.028-1.159,1.941-2.366,2.748-3.623
			c0.784-1.221,1.442-2.317,1.996-3.297c0.856-4.581,2.704-9.09,5.556-13.036c1.529-2.091,2.913-3.613,4.156-4.581
			c1.243-0.965,2.527-1.717,3.847-2.254c1.32-0.536,2.359-0.675,3.129-0.423c0.503-1.217,1.009-1.918,1.517-2.12
			c0.993-0.394,1.88-0.216,2.649,0.55c0.769,0.766,1.089,1.652,0.978,2.65c-0.525,1.367-1.261,3.05-2.2,5.043
			c-0.406,1.783-0.779,4.211-1.052,7.144c-0.273,2.937-0.064,4.172,0.509,3.945c0.716-0.285,2.549-2.673,5.656-7.407
			c0.48-0.762,0.806-1.165,1.034-1.339c0.058-0.278,0.104-0.638,0.164-0.896c0.523-2.26,1.351-4.694,2.466-7.25
			c-1.059-1.179-1.53-2.344-1.397-3.513c0.278-2.452,1.398-4.012,3.368-4.703c1.008-0.354,1.498,0.15,1.998,1.353
			c0.36,0.831,0.597,1.869,0.688,3.121c0.314,0.082,0.727,0.047,1.231-0.098c0.704-0.203,1.55-0.775,2.532-1.709
			c0.402-0.382,0.603-0.572,1.004-0.949c0.311-0.292,0.573-0.464,0.801-0.519c0.722-0.175,1.379,1.187,2.023,4.096
			c-0.288,1.466-0.597,2.881-0.929,4.237c-0.332,1.358-0.723,2.985-1.164,4.848c-0.446,1.864-0.674,3.059-0.701,3.645
			c-0.027,0.586,0.119,0.833,0.427,0.76c0.42-0.099,0.94-0.528,1.566-1.296c0.621-0.77,1.248-1.602,1.874-2.5
			c0.437-0.63,0.82-1.188,1.21-1.753c0.146-1.397,0.39-2.853,0.831-4.428c0.636-2.281,1.46-4.329,2.459-6.1
			c0.999-1.767,2.134-3.199,3.425-4.293c1.296-1.097,2.682-1.757,4.19-1.995c1.512-0.239,2.705,0.058,3.583,0.892
			c0.873,0.838,1.35,2.031,1.419,3.579c0.069,1.548-0.183,2.864-0.766,3.939c-0.583,1.076-1.358,2.011-2.32,2.813
			c-0.962,0.802-2.039,1.545-3.226,2.239c-1.187,0.696-2.347,1.45-3.485,2.265c0.009,0.518,0.014,0.775,0.023,1.285
			c0.05,1.221,0.507,1.989,1.376,2.342c0.863,0.354,1.862,0.473,2.94,0.327c2.276-0.309,4.507-1.641,6.562-4.039
			c0.762-0.889,1.378-1.708,1.841-2.455c0.092-0.146,0.162-0.216,0.246-0.335c-0.054-1.715-0.033-3.543,0.106-5.529
			c0.332-4.759,1.198-9.287,2.576-13.258c0.706-2.024,1.52-3.719,2.46-5.129c2.058-3.104,4.531-4.653,7.325-5.129
			c1.237-0.211,2.24-0.071,2.995,0.48c0.75,0.554,1.167,1.493,1.269,2.886c0.102,1.396-0.158,2.936-0.78,4.589
			c-0.627,1.654-1.453,3.438-2.492,5.327c-1.037,1.892-2.2,3.9-3.494,5.998c-1.298,2.102-2.564,4.356-3.813,6.717
			c0.059,0.854,0.088,1.278,0.146,2.118c0.136,1.962,0.594,3.297,1.376,4.067c0.782,0.773,1.659,1.084,2.619,0.958
			c2.589-0.339,4.78-2.001,6.501-5.263c0.169-0.321,0.301-0.489,0.452-0.738c-0.134-1.861-0.178-3.877-0.103-6.07
			c0.164-4.836,0.878-9.455,2.194-13.549c0.675-2.086,1.481-3.848,2.423-5.332c2.064-3.265,4.577-4.994,7.294-5.682
			c1.204-0.305,2.158-0.24,2.868,0.262c0.705,0.507,1.087,1.432,1.184,2.851c0.097,1.421-0.135,3.023-0.706,4.767
			c-0.575,1.745-1.332,3.638-2.293,5.644c-0.96,2.01-2.038,4.138-3.247,6.354c-1.214,2.22-2.395,4.579-3.567,7.032
			c0.084,0.867,0.125,1.299,0.205,2.153c0.186,1.994,0.664,3.337,1.446,4.091c0.782,0.757,1.645,1.038,2.582,0.864
			c2.528-0.469,4.642-2.305,6.231-5.772c0.017-0.038,0.03-0.051,0.047-0.088c0.028-4.687,1.003-9.137,3.208-12.901
			c1.141-1.913,2.23-3.298,3.285-4.154c1.055-0.852,2.184-1.506,3.385-1.966c1.2-0.459,2.196-0.56,3.019-0.278
			c0.209-1.233,0.545-1.94,0.995-2.142c0.878-0.394,1.773-0.223,2.711,0.535c0.939,0.759,1.486,1.644,1.645,2.669
			c-0.148,1.424-0.418,3.178-0.838,5.238c0.062,1.834,0.331,4.327,0.71,7.327c0.379,3.003,0.761,4.257,1.299,4.011
			c0.671-0.306,2.198-2.752,4.066-7.939c0.332-0.982,0.582-1.536,0.772-1.648c0.433-0.256,0.789,0.477,1.028,2.139
			C259.636,138.793,259.533,140.029,259.161,141.553z"/>
	</g>
	<g>
		<path class="st0" d="M158.858,66.444c0.281,0.073,0.698-0.017,1.08-0.264c0.772-0.498,0.772-0.5,1.604-1.029
			c0.769-0.489,0.767-0.369,1.537-0.851c0.769-0.481,0.771-0.542,1.54-1.014c0.768-0.471,0.771-0.591,1.54-1.053
			c0.769-0.461,0.765-0.345,1.598-0.835c0.769-0.452,0.767-0.451,1.536-0.894c0.765-0.44,0.768-0.386,1.534-0.817
			c0.765-0.43,0.77-0.544,1.536-0.963c0.767-0.419,0.764-0.309,1.594-0.751c0.759-0.404,0.764-0.57,1.529-0.964
			c0.763-0.394,0.767-0.397,1.53-0.778c0.762-0.381,0.762-0.328,1.528-0.7c0.763-0.369,0.764-0.319,1.589-0.706
			c0.764-0.358,0.764-0.41,1.527-0.754c0.762-0.344,0.763-0.345,1.524-0.675c0.76-0.33,0.763-0.434,1.524-0.751
			c0.76-0.316,0.757-0.214,1.581-0.541c0.758-0.302,0.758-0.252,1.517-0.542c0.749-0.285,0.754-0.285,1.509-0.56
			c0.443-0.161,0.872-0.441,1.146-0.745c0.255-0.283,0.449-0.689,0.457-1.037c0.014-0.599,0.015-0.599,0.026-1.162
			c0.013-0.614-0.112-0.575-0.098-1.203c0.013-0.579,0.139-0.617,0.151-1.259c0.013-0.642,0.015-0.644,0.028-1.301
			c0.012-0.601-0.112-0.568-0.097-1.238c0.009-0.391-0.189-0.64-0.417-0.793c-0.247-0.166-0.556-0.375-1-0.262
			c-0.754,0.192-0.757,0.25-1.507,0.453c-0.759,0.206-0.756,0.206-1.515,0.422c-0.759,0.218-0.761,0.279-1.518,0.509
			c-0.758,0.231-0.755,0.168-1.517,0.41c-0.76,0.243-0.76,0.243-1.52,0.496c-0.761,0.254-0.761,0.255-1.523,0.52
			c-0.761,0.265-0.762,0.2-1.522,0.476c-0.761,0.276-0.762,0.209-1.525,0.496c-0.761,0.287-0.763,0.287-1.521,0.584
			c-0.762,0.298-0.768,0.37-1.531,0.68c-0.764,0.31-0.767,0.456-1.533,0.778c-0.449,0.189-0.894,0.234-1.204-0.009
			c-0.246-0.192-0.234-0.809-0.225-1.273c0.019-0.927,0.02-0.929,0.038-1.878c0.019-0.945,0.081-0.968,0.103-1.935
			c0.02-0.886-0.045-0.865-0.025-1.846c0.02-0.981-0.043-0.963-0.023-1.959c0.019-0.996,0.148-1.033,0.167-2.034
			c0.02-1.005-0.043-0.991-0.024-1.921c0.02-1.014,0.083-1.031,0.104-2.05c0.02-1.018,0.02-1.022,0.041-2.045
			c0.02-1.02-0.169-0.992-0.15-1.933c0.021-1.026,0.02-1.029,0.041-2.057c0.02-1.028-0.042-1.022-0.022-2.046
			c0.021-1.021,0.208-1.037,0.23-2.051c0.019-0.932-0.17-0.924-0.15-1.935c0.02-1.011,0.273-1.016,0.291-2.01
			c0.018-0.994-0.105-1.001-0.087-1.976c0.017-0.899,0.142-0.898,0.163-1.863c0.019-0.965,0.019-0.967,0.037-1.91
			c0.019-0.944-0.232-0.972-0.215-1.894c0.018-0.92,0.206-0.899,0.222-1.722c0.018-0.899-0.046-0.908-0.029-1.777
			c0.017-0.869,0.141-0.851,0.158-1.687c0.017-0.836,0.014-0.837,0.03-1.569c0.01-0.466-0.264-0.973-0.549-1.297
			c-0.243-0.276-0.682-0.588-1.066-0.663c-0.823-0.16-0.827-0.096-1.587-0.237c-0.758-0.141-0.764-0.076-1.589-0.22
			c-0.761-0.134-0.76-0.333-1.523-0.46c-0.828-0.138-0.831,0.064-1.595-0.055c-0.826-0.129-0.824-0.195-1.591-0.308
			c-0.764-0.111-0.766-0.041-1.595-0.154c-0.377-0.051-0.703,0.045-1.028,0.368c-0.259,0.258-0.519,0.598-0.528,1.128
			c-0.013,0.83-0.083,0.822-0.101,1.779c-0.018,0.957-0.08,0.952-0.098,1.957c-0.018,1.004,0.046,1.009,0.027,2.052
			c-0.017,0.956,0.115,0.964,0.097,2.035c-0.018,1.076-0.019,1.079-0.039,2.188c-0.02,1.109-0.154,1.113-0.174,2.252
			c-0.018,1.044,0.049,1.045,0.029,2.204c-0.02,1.155,0.042,1.154,0.022,2.334c-0.021,1.181,0.042,1.176,0.019,2.372
			c-0.022,1.098-0.216,1.122-0.239,2.334c-0.024,1.212,0.111,1.192,0.089,2.404c-0.023,1.218-0.219,1.255-0.242,2.483
			c-0.024,1.227,0.175,1.184,0.154,2.308c-0.024,1.225-0.023,1.228-0.046,2.444c-0.023,1.221,0.041,1.207,0.018,2.424
			c-0.022,1.218-0.022,1.218-0.044,2.327c-0.024,1.208-0.086,1.232-0.108,2.431c-0.023,1.195-0.022,1.194-0.045,2.379
			c-0.021,1.183-0.159,1.24-0.176,2.31c-0.019,1.166,0.046,1.139,0.026,2.285c-0.02,1.146-0.154,1.209-0.176,2.328
			c-0.022,1.124,0.24,0.995,0.22,1.999c-0.021,1.094-0.084,1.126-0.104,2.19c-0.02,1.064-0.153,1.136-0.173,2.167
			c-0.021,1.027,0.179,0.915,0.16,1.825c-0.02,0.994-0.021,0.996-0.037,1.945c-0.016,0.95-0.084,0.992-0.099,1.9
			c-0.015,0.905-0.151,0.987-0.166,1.779c-0.017,0.865-0.015,0.863-0.032,1.678C158.353,66.128,158.621,66.382,158.858,66.444z"/>
	</g>
	<g>
		<path class="st0" d="M210.977,132.836c0.539-1,0.955-1.879,1.243-2.644c0.294-0.766,0.412-1.516,0.357-2.247
			c-0.055-0.731-0.315-1.046-0.772-0.969c-1.014,0.17-2.042,1.466-3.089,4.086c-1.046,2.623-1.72,6.105-2.041,10.429
			c0.863-2.026,1.661-3.728,2.394-5.099C209.807,135.02,210.439,133.836,210.977,132.836z"/>
	</g>
	<g>
		<path class="st0" d="M190.702,147.609c0.835-0.923,1.267-1.904,1.255-2.902c-0.01-0.887-0.473-1.284-1.34-1.145
			c-1.456,0.234-2.418,2.619-2.942,7.012c0.59-0.599,1.146-1.137,1.663-1.614C189.86,148.48,190.312,148.03,190.702,147.609z"/>
	</g>
	<g>
		<path class="st0" d="M89.792,181.657c-0.27,0.05-0.493,0.334-0.679,0.855c-0.186,0.521-0.279,1.004-0.286,1.451
			c-0.022,1.491,0.343,2.635,1.097,3.431c0.519-1.402,0.789-2.745,0.81-4.015C90.755,182.112,90.439,181.535,89.792,181.657z"/>
	</g>
	<g>
		<path class="st0" d="M227.62,129.708c0.509-1.056,0.9-1.982,1.172-2.785c0.276-0.803,0.384-1.579,0.325-2.323
			c-0.059-0.744-0.311-1.048-0.757-0.939c-0.991,0.242-2.009,1.632-3.005,4.366c-0.996,2.738-1.576,6.322-1.756,10.744
			c0.795-2.102,1.537-3.88,2.226-5.32C226.517,132.011,227.112,130.764,227.62,129.708z"/>
	</g>
	<g>
		<path class="st0" d="M246.865,130.891c-2.008,1.456-3.69,3.598-5.022,6.457c-1.332,2.855-1.811,6.014-1.47,9.336
			c0.279,2.722,1.184,3.764,2.746,3.271c1.677-0.529,2.995-2.077,3.832-4.723c0.298-0.912,0.618-2.113,0.593-3.25
			C247.463,138.281,246.764,134.116,246.865,130.891z"/>
	</g>
</g>
</svg>