<!-- Generator: Adobe Illustrator 22.1.0, SVG Export Plug-In  -->
<svg version="1.1"
	 xmlns="http://www.w3.org/2000/svg" xmlns:xlink="http://www.w3.org/1999/xlink" xmlns:a="http://ns.adobe.com/AdobeSVGViewerExtensions/3.0/"
	 x="0px" y="0px" width="204.665px" height="145.457px" viewBox="0 0 204.665 145.457"
	 style="enable-background:new 0 0 204.665 145.457;" xml:space="preserve">
<style type="text/css">
	.st0{fill:#FFFFFF;}
</style>
<defs>
</defs>
<g>
	<g>
		<g>
			<path class="st0" d="M196.778,74.573c-2.801-23.481-32.772-26.418-50.469-20.271c-13.27,4.611-23.697,12.312-33.759,22.084
				c11.225,10.894,23.642,20.884,39.11,24.255C168.682,104.35,199.604,98.274,196.778,74.573z"/>
		</g>
		<g>
			<path class="st0" d="M155.531,113.123c-18.973-2.655-33.825-12.254-47.415-24.101v42.4c0,6.923,5.666,12.682,12.583,12.801
				l71.376,1.231c6.928,0.118,12.59-5.447,12.59-12.365V92.024c-0.538,0.931-1.13,1.848-1.791,2.744
				C191.862,109.686,173.616,115.653,155.531,113.123z"/>
		</g>
		<g>
			<path class="st0" d="M192.108,0.888l-71.442,4.927c-6.901,0.476-12.55,6.528-12.55,13.45v44.341
				c24.042-20.437,62.455-36.464,88.266-12.589c3.414,3.154,6.215,6.952,8.283,11.078V12.607
				C204.665,5.685,199.015,0.41,192.108,0.888z"/>
		</g>
	</g>
	<g>
		<path class="st0" d="M84.011,6.204L12.537,0.046C5.641-0.548,0,4.628,0,11.55v120.48c0,6.921,5.662,12.583,12.587,12.583h71.375
			c6.921,0,12.583-5.662,12.583-12.583V19.872C96.545,12.95,90.899,6.801,84.011,6.204z M83.357,83.034
			c-4.816,3.745-9.965,7.064-15.395,9.817c-3.225,1.741-6.61,3.281-10.254,4.548c-17.365,6.027-46.752,3.139-49.505-19.893
			c-0.111-0.925-0.146-1.812-0.155-2.682c-0.005-0.331,0.003-0.654,0.014-0.975c0.01-0.381,0.03-0.755,0.066-1.122
			c0.008-0.065,0.021-0.126,0.024-0.191c1.839-19.117,28.901-23.979,44.306-20.59c15.167,3.309,27.087,12.888,38.085,23.582v0.01
			c-7.008,6.808-14.075,12.66-22.24,17.122C73.608,89.944,78.642,86.696,83.357,83.034z M8.217,72.05
			c0.054-0.504,0.111-1.009,0.201-1.492C8.328,71.041,8.271,71.546,8.217,72.05z M8.532,70.079c0.106-0.502,0.217-1.004,0.356-1.488
			C8.749,69.076,8.638,69.577,8.532,70.079z M9.001,68.289c0.162-0.528,0.337-1.047,0.544-1.548
			C9.338,67.242,9.162,67.761,9.001,68.289z M9.607,66.618c1.233-2.922,3.166-5.406,5.592-7.461
			C12.773,61.212,10.844,63.696,9.607,66.618z M90.543,73.609C79.851,63.607,66.836,54.895,52.458,51.761
			c-0.85-0.187-1.744-0.344-2.662-0.481c0.913,0.137,1.809,0.292,2.662,0.478C66.837,54.882,79.848,63.6,90.543,73.592V73.609z
			 M11.465,5.999c0.184,0,0.37,0.009,0.555,0.025l71.474,6.159c3.82,0.331,7.049,3.851,7.049,7.689v39.376
			C78.46,49.466,65.146,41.808,48.672,39.493c-15.814-2.211-31.749,2.226-42.674,13.58V11.55C5.997,8.383,8.349,5.999,11.465,5.999z
			 M83.962,138.613H12.587c-3.636,0-6.589-2.953-6.589-6.583V97.739c0.826,0.937,1.695,1.843,2.613,2.694
			c23.712,21.928,58.256,9.522,81.933-8.599v40.195C90.543,135.659,87.589,138.613,83.962,138.613z"/>
	</g>
</g>
</svg>