<!-- Generator: Adobe Illustrator 22.1.0, SVG Export Plug-In  -->
<svg version="1.1"
	 xmlns="http://www.w3.org/2000/svg" xmlns:xlink="http://www.w3.org/1999/xlink" xmlns:a="http://ns.adobe.com/AdobeSVGViewerExtensions/3.0/"
	 x="0px" y="0px" width="180.061px" height="151.667px" viewBox="0 0 180.061 151.667"
	 style="enable-background:new 0 0 180.061 151.667;" xml:space="preserve">
<style type="text/css">
	.st0{fill:#E2E6E8;}
	.st1{fill:#B4B0B5;}
	.st2{fill:#00A79D;}
	.st3{fill:#FFFFFF;}
	.st4{fill:#24747F;}
	.st5{opacity:0.13;}
</style>
<defs>
</defs>
<g>
	<g>
		<path class="st0" d="M107.219,142.531l-0.754-17.934c-0.068-1.403-1.225-2.506-2.63-2.506H76.53c-1.405,0-2.562,1.103-2.63,2.506
			l-0.754,17.934c-0.068,1.403-1.225,2.506-2.63,2.506h0c-1.454,0-2.633,1.179-2.633,2.633v0.614c0,1.454,1.179,2.633,2.633,2.633
			h39.332c1.454,0,2.633-1.179,2.633-2.633v-0.614c0-1.454-1.179-2.633-2.633-2.633h0
			C108.444,145.037,107.286,143.934,107.219,142.531z"/>
		<path class="st1" d="M109.849,151.667H70.517c-1.865,0-3.383-1.518-3.383-3.383v-0.613c0-1.866,1.518-3.383,3.383-3.383
			c1.006,0,1.832-0.787,1.881-1.792l0.753-17.929c0.088-1.811,1.572-3.225,3.379-3.225h27.306c1.808,0,3.292,1.414,3.379,3.22
			l0.753,17.936c0.049,1.004,0.875,1.791,1.881,1.791c1.865,0,3.383,1.518,3.383,3.383v0.613
			C113.231,150.149,111.714,151.667,109.849,151.667z M76.53,122.841c-1.006,0-1.832,0.787-1.881,1.792l-0.753,17.929
			c-0.088,1.811-1.572,3.225-3.379,3.225c-1.038,0-1.883,0.845-1.883,1.883v0.613c0,1.038,0.845,1.883,1.883,1.883h39.332
			c1.038,0,1.883-0.845,1.883-1.883v-0.613c0-1.039-0.845-1.883-1.883-1.883c-1.808,0-3.292-1.414-3.379-3.22
			c0-0.001,0-0.003,0-0.005l-0.753-17.934c-0.048-1-0.875-1.787-1.88-1.787H76.53z"/>
	</g>
	<g>
		<g>
			<path class="st2" d="M179.311,11.187c0-4.033-3.631-7.302-8.11-7.302H8.86c-4.479,0-8.11,3.269-8.11,7.302v100.63h178.561V11.187
				z"/>
		</g>
		<g>
			<path class="st0" d="M8.86,126.154h162.34c4.479,0,8.11-3.269,8.11-7.302v-7.035H0.75v7.035
				C0.75,122.885,4.381,126.154,8.86,126.154z"/>
			<path class="st1" d="M171.201,126.904H8.86c-4.885,0-8.86-3.612-8.86-8.052v-7.036c0-0.414,0.336-0.75,0.75-0.75h178.561
				c0.414,0,0.75,0.336,0.75,0.75v7.036C180.061,123.292,176.086,126.904,171.201,126.904z M1.5,112.566v6.286
				c0,3.613,3.302,6.552,7.36,6.552h162.341c4.058,0,7.36-2.939,7.36-6.552v-6.286H1.5z"/>
		</g>
	</g>
	<g>
		<polyline class="st3" points="86.484,103.786 10.201,103.786 10.201,11.197 169.86,11.197 169.86,103.786 86.484,103.786 		"/>
		<path class="st4" d="M169.86,104.536H10.201c-0.414,0-0.75-0.336-0.75-0.75V11.197c0-0.414,0.336-0.75,0.75-0.75H169.86
			c0.414,0,0.75,0.336,0.75,0.75v92.589C170.61,104.2,170.274,104.536,169.86,104.536z M10.951,103.036H169.11V11.947H10.951
			V103.036z"/>
	</g>
	<g class="st5">
		<rect x="74.457" y="126.917" width="31.364" height="4.502"/>
	</g>
	<g class="st5">
		<rect x="10.957" y="12.031" width="158.026" height="2.092"/>
	</g>
	<g>
		<path class="st4" d="M179.311,112.566H0.75c-0.414,0-0.75-0.336-0.75-0.75V7.115C0,3.192,3.192,0,7.115,0h165.83
			c3.923,0,7.115,3.192,7.115,7.115v104.701C180.061,112.23,179.725,112.566,179.311,112.566z M1.5,111.066h177.061V7.115
			c0-3.096-2.519-5.615-5.615-5.615H7.115C4.019,1.5,1.5,4.019,1.5,7.115V111.066z"/>
	</g>
</g>
</svg>