<!-- Generator: Adobe Illustrator 22.1.0, SVG Export Plug-In  -->
<svg version="1.1"
	 xmlns="http://www.w3.org/2000/svg" xmlns:xlink="http://www.w3.org/1999/xlink" xmlns:a="http://ns.adobe.com/AdobeSVGViewerExtensions/3.0/"
	 x="0px" y="0px" width="412.52px" height="68.019px" viewBox="0 0 412.52 68.019"
	 style="enable-background:new 0 0 412.52 68.019;" xml:space="preserve">
<style type="text/css">
	.st0{fill:#C5392E;}
	.st1{fill:#010101;}
	.st2{fill:#FDFEFF;}
</style>
<defs>
</defs>
<g>
	<g>
		<path class="st0" d="M3.235,11.513c2.483-0.654,4.923-1.28,7.331-1.904c8.158-2.11,16.316-4.216,24.49-6.304
			c0.369-0.092,0.802-0.099,1.176,0c10.388,2.666,20.783,5.343,31.166,8.023c0.481,0.121,0.632,0.282,0.608,0.731
			c-0.544,9.013-1.756,17.922-4.967,26.564c-2.341,6.314-5.663,12.183-10.888,17.137c-4.423,4.198-9.775,7.171-16.034,8.969
			c-0.298,0.085-0.711,0.07-1.037-0.03c-7.268-2.18-13.236-5.925-17.957-11.128c-4.729-5.217-7.749-11.172-9.827-17.492
			C5.098,29.46,3.998,22.684,3.521,15.83C3.405,14.419,3.318,12.995,3.235,11.513z"/>
		<path class="st1" d="M35.692,68.019c-0.52,0-1.049-0.074-1.526-0.232c-7.741-2.321-14.269-6.378-19.431-12.044
			c-4.594-5.055-8.043-11.164-10.518-18.659c-2.083-6.344-3.39-13.23-3.93-21.027c-0.063-1.019-0.127-2.031-0.19-3.066l-0.088-1.261
			C-0.1,10.175,0.918,8.765,2.42,8.377l2.511-0.65C6.557,7.304,8.158,6.891,9.763,6.48l2.134-0.54
			c7.439-1.935,14.897-3.856,22.356-5.76c0.89-0.232,1.915-0.243,2.782-0.01C42.566,1.59,48.09,3.009,53.629,4.441
			c4.856,1.248,9.716,2.503,14.572,3.751c2.36,0.612,3.127,2.498,3.012,4.045C70.561,23.41,68.979,31.89,66.074,39.75
			c-2.797,7.518-6.616,13.525-11.71,18.357c-4.745,4.508-10.582,7.786-17.353,9.728C36.598,67.949,36.168,68.019,35.692,68.019z
			 M6.62,13.962c0.044,0.554,0.088,1.095,0.107,1.641c0.525,7.26,1.693,13.62,3.628,19.453c2.189,6.616,5.186,11.959,9.147,16.34
			c4.276,4.717,9.723,8.108,16.165,10.105c5.547-1.675,10.34-4.383,14.249-8.09c4.359-4.127,7.657-9.332,10.105-15.917
			c2.496-6.733,3.946-14.079,4.622-23.542C60.436,12.87,56.224,11.779,52,10.7c-5.444-1.417-10.892-2.819-16.332-4.22
			c-7.395,1.898-14.798,3.807-22.17,5.716l-2.106,0.544C9.815,13.138,8.221,13.555,6.62,13.962z"/>
	</g>
	<g>
		<path class="st2" d="M52.604,32.992c0,9.384-7.606,17-16.98,17c-9.394,0-16.988-7.616-16.988-17
			c0-9.378,7.594-16.982,16.988-16.982C44.998,16.011,52.604,23.614,52.604,32.992z"/>
		<path class="st1" d="M35.624,51.877c-10.415,0-18.867-8.468-18.867-18.885c0-10.393,8.452-18.865,18.867-18.865
			c10.383,0,18.867,8.472,18.867,18.865C54.491,43.409,46.007,51.877,35.624,51.877z M35.624,17.898
			c-8.333,0-15.124,6.765-15.124,15.094c0,8.327,6.791,15.114,15.124,15.114c8.329,0,15.096-6.787,15.096-15.114
			C50.72,24.663,43.953,17.898,35.624,17.898z"/>
	</g>
	<g>
		<g>
			<g>
				<g>
					<path class="st1" d="M47.728,33.048c0,6.489-5.277,11.74-11.762,11.74c-6.465,0-11.73-5.261-11.73-11.74
						c0-6.481,5.265-11.732,11.73-11.732C42.451,21.315,47.7,26.567,47.728,33.048z"/>
				</g>
			</g>
		</g>
		<g>
			<g>
				<path class="st0" d="M27.684,30.815c1.669,1.683,4.379,1.683,6.056,0c1.665-1.667,1.665-4.381,0-6.05
					c-1.677-1.673-4.387-1.673-6.056,0C26.02,26.434,26.02,29.148,27.684,30.815z"/>
			</g>
		</g>
	</g>
	<g>
		<g>
			<path class="st1" d="M126.981,32.032c0.963,0,1.498,0.537,1.498,1.498v6.875v13.058c0,0.956-0.535,1.498-1.498,1.498h-6.004
				c-0.929,0-1.498-0.541-1.498-1.498v-3.396c-2.798,3.759-7.163,5.736-12.731,5.736c-11.67,0-20.596-9.457-20.596-21.794
				c0-12.341,9.153-21.794,21.79-21.794c9.513,0,17.592,5.858,20.04,13.535c0.376,1.014-0.163,1.673-1.233,1.673h-7.082
				c-0.834,0-1.305-0.368-1.725-1.076c-1.754-2.698-5.559-4.789-10.001-4.789c-7.424,0-12.213,4.962-12.213,12.45
				c0,8.081,5.135,13.043,12.213,13.043c4.51,0,8.999-1.883,10.698-6.648h-9.012c-0.959,0-1.528-0.535-1.528-1.496V33.53
				c0-0.961,0.569-1.498,1.528-1.498H126.981L126.981,32.032z"/>
		</g>
		<g>
			<path class="st1" d="M137.149,42.031V14.551c0-0.957,0.526-1.498,1.515-1.498h6.556c0.963,0,1.523,0.541,1.523,1.498v26.636
				c0,3.177,1.472,5.268,5.982,5.268c4.485,0,5.978-2.09,5.978-5.268V14.551c0-0.957,0.539-1.498,1.493-1.498h6.594
				c0.95,0,1.493,0.541,1.493,1.498v27.479c0,8.982-6.937,13.773-15.56,13.773C144.103,55.803,137.149,51.013,137.149,42.031z"/>
		</g>
		<g>
			<path class="st1" d="M210.791,54.96h-7.386c-0.839,0-1.421-0.362-1.648-1.247l-1.588-5.334h-14.704l-1.562,5.334
				c-0.231,0.886-0.843,1.247-1.677,1.247h-7.356c-1.074,0-1.618-0.603-1.262-1.686l12.679-38.963
				c0.261-0.837,0.911-1.258,1.755-1.258h9.577c0.834,0,1.493,0.422,1.724,1.258l12.714,38.963
				C212.408,54.357,211.869,54.96,210.791,54.96z M197.521,39.392l-4.694-15.863l-4.686,15.863H197.521z"/>
		</g>
		<g>
			<path class="st1" d="M253.044,53.103c0.775,0.956,0.355,1.857-0.89,1.857h-7.677c-0.774,0-1.378-0.233-1.844-0.901l-10.21-12.872
				h-3.667v12.275c0,0.956-0.556,1.498-1.515,1.498h-6.586c-0.959,0-1.472-0.541-1.472-1.498V14.551
				c0-0.957,0.513-1.498,1.472-1.498h8.101h6.56c7.968,0,14.37,6.404,14.37,14.37c0,5.03-2.966,9.605-7.407,12.003L253.044,53.103
				L253.044,53.103z M228.755,32.817h6.56c2.645,0,4.789-2.339,4.789-5.394c0-3.051-2.144-5.385-4.789-5.385h-6.56V32.817z"/>
		</g>
		<g>
			<path class="st1" d="M298.186,34.009c0,11.854-8.816,20.951-20.356,20.951h-14.969h-1.493c-0.963,0-1.502-0.541-1.502-1.498
				V14.551c0-0.957,0.539-1.498,1.502-1.498h8.079h8.383C289.371,13.054,298.186,22.151,298.186,34.009z M288.947,34.009
				c0-7.183-4.524-11.738-11.118-11.738h-8.383v23.472h8.383C284.424,45.743,288.947,41.188,288.947,34.009z"/>
		</g>
		<g>
			<path class="st1" d="M303.921,43.351c-0.069-1.027,0.535-1.556,1.493-1.556H312c0.894,0,1.378,0.469,1.57,1.425
				c0.466,2.165,2.264,3.235,5.786,3.235c3.907,0,5.174-1.493,5.174-3.235c0-2.45-3.021-3.522-6.663-4.786
				c-5.927-2.033-13.411-4.487-13.411-13.642c0-8.383,6.821-12.577,13.946-12.577c7.014,0,13.715,3.768,14.443,12.448
				c0.043,1.029-0.543,1.564-1.502,1.564h-6.586c-0.911,0-1.378-0.477-1.562-1.436c-0.475-2.219-2.037-3.233-4.793-3.233
				c-2.987,0-4.365,1.496-4.365,3.233c0,2.512,2.457,3.716,5.931,4.964c5.982,2.107,14.138,4.254,14.138,13.465
				c0,8.385-6.731,12.583-14.751,12.583C311.516,55.803,304.648,52.031,303.921,43.351z"/>
		</g>
		<g>
			<path class="st0" d="M341.283,42.031V14.551c0-0.957,0.526-1.498,1.485-1.498h6.586c0.963,0,1.493,0.541,1.493,1.498v26.636
				c0,3.177,1.502,5.268,5.978,5.268c4.51,0,6.013-2.09,6.013-5.268V14.551c0-0.957,0.535-1.498,1.493-1.498h6.586
				c0.959,0,1.502,0.541,1.502,1.498v27.479c0,8.982-6.963,13.773-15.594,13.773C348.219,55.803,341.283,51.013,341.283,42.031z"/>
		</g>
		<g>
			<path class="st0" d="M412.52,27.424c0,7.964-6.402,14.372-14.674,14.372h-6.278v11.667c0,0.956-0.535,1.498-1.493,1.498h-6.586
				c-0.963,0-1.502-0.541-1.502-1.498V14.551c0-0.957,0.539-1.498,1.502-1.498h8.079h6.278
				C406.118,13.054,412.52,19.458,412.52,27.424z M402.938,27.424c0-3.051-2.178-5.385-5.092-5.385h-6.278v10.779h6.278
				C400.761,32.817,402.938,30.468,402.938,27.424z"/>
		</g>
	</g>
</g>
</svg>