<!-- Generator: Adobe Illustrator 22.1.0, SVG Export Plug-In  -->
<svg version="1.1"
	 xmlns="http://www.w3.org/2000/svg" xmlns:xlink="http://www.w3.org/1999/xlink" xmlns:a="http://ns.adobe.com/AdobeSVGViewerExtensions/3.0/"
	 x="0px" y="0px" width="288.515px" height="80.223px" viewBox="0 0 288.515 80.223"
	 style="enable-background:new 0 0 288.515 80.223;" xml:space="preserve">
<style type="text/css">
	.st0{fill:#1B191B;}
</style>
<defs>
</defs>
<g>
	<g>
		<g>
			<g>
				<path class="st0" d="M16.041,0c0.45,0,0.654,0.243,0.654,0.654v4.075c0,0.407-0.204,0.654-0.654,0.654h-4.729v26.581
					c0,0.447-0.204,0.651-0.651,0.651H6.419c-0.407,0-0.651-0.204-0.651-0.651V5.382H1.04c-0.407,0-0.654-0.246-0.654-0.654V0.654
					C0.386,0.243,0.632,0,1.04,0H16.041z"/>
			</g>
			<g>
				<path class="st0" d="M30.731,0.654C30.731,0.243,30.975,0,31.382,0h4.2c0.49,0,0.693,0.243,0.693,0.654v31.31
					c0,0.407-0.204,0.651-0.693,0.651h-4.2c-0.407,0-0.651-0.243-0.651-0.651V18.997h-5.218v12.967c0,0.407-0.246,0.651-0.654,0.651
					h-4.2c-0.49,0-0.693-0.243-0.693-0.651V0.654C19.966,0.243,20.17,0,20.66,0h4.2c0.407,0,0.654,0.243,0.654,0.654v12.964h5.218
					V0.654z"/>
			</g>
			<g>
				<path class="st0" d="M56.631,4.729c0,0.407-0.161,0.693-0.651,0.693H45.787v8.153h7.788c0.407,0,0.651,0.246,0.651,0.693v4.035
					c0,0.45-0.243,0.693-0.651,0.693h-7.788v8.235H55.98c0.49,0,0.651,0.204,0.651,0.654v4.078c0,0.407-0.161,0.651-0.651,0.651
					H40.976c-0.365,0-0.611-0.243-0.611-0.651V0.654C40.365,0.243,40.611,0,40.976,0H55.98c0.49,0,0.651,0.243,0.651,0.654V4.729z"
					/>
			</g>
		</g>
		<g>
			<path class="st0" d="M1.55,54.508c0-3.056,1.626-4.679,4.679-4.679h4.293c3.021,0,4.679,1.623,4.679,4.679v3.38
				c0,0.323-0.197,0.52-0.52,0.52h-3.253c-0.355,0-0.52-0.197-0.52-0.52v-2.47c0-0.846-0.453-1.3-1.3-1.3h-2.34
				c-0.875,0-1.3,0.453-1.3,1.3v14.818c0,0.878,0.457,1.3,1.3,1.3h2.34c0.846,0,1.3-0.422,1.3-1.3v-4.353H9.222
				c-0.358,0-0.52-0.197-0.52-0.52v-3.253c0-0.355,0.162-0.52,0.52-0.52h5.459c0.323,0,0.52,0.165,0.52,0.52v9.036
				c0,3.056-1.658,4.679-4.679,4.679H6.23c-3.053,0-4.679-1.623-4.679-4.679V54.508z"/>
			<path class="st0" d="M32.601,62.437c0,2.178-0.812,3.608-2.371,4.29l2.241,8.516c0.098,0.387-0.098,0.583-0.453,0.583h-3.38
				c-0.327,0-0.488-0.162-0.552-0.457l-2.178-8.253h-2.241v8.189c0,0.323-0.197,0.52-0.52,0.52h-3.38c-0.327,0-0.52-0.197-0.52-0.52
				V50.349c0-0.323,0.193-0.52,0.52-0.52h8.154c3.056,0,4.679,1.623,4.679,4.679V62.437z M26.881,62.827c0.846,0,1.3-0.457,1.3-1.3
				v-6.109c0-0.846-0.453-1.3-1.3-1.3h-3.215v8.709H26.881z"/>
			<path class="st0" d="M47.888,75.826c-0.292,0-0.453-0.162-0.52-0.457l-0.907-4.743h-5.786l-0.878,4.743
				c-0.063,0.295-0.228,0.457-0.52,0.457h-3.475c-0.358,0-0.52-0.197-0.425-0.552l5.396-24.989c0.063-0.327,0.26-0.457,0.552-0.457
				h4.518c0.292,0,0.485,0.13,0.552,0.457l5.393,24.989c0.067,0.355-0.063,0.552-0.453,0.552H47.888z M43.567,55.516l-2.08,11.34
				h4.16L43.567,55.516z"/>
			<path class="st0" d="M68.537,49.829c0.327,0,0.52,0.197,0.52,0.52v24.957c0,0.323-0.193,0.52-0.52,0.52h-3.218
				c-0.292,0-0.485-0.13-0.583-0.422l-4.971-13.877H59.6v13.779c0,0.323-0.162,0.52-0.52,0.52H55.7c-0.323,0-0.52-0.197-0.52-0.52
				V50.349c0-0.323,0.197-0.52,0.52-0.52h3.218c0.295,0,0.488,0.13,0.587,0.422l4.939,13.813h0.193V50.349
				c0-0.323,0.162-0.52,0.52-0.52H68.537z"/>
			<path class="st0" d="M73.106,54.508c0-3.056,1.623-4.679,4.679-4.679h3.64c3.053,0,4.679,1.623,4.679,4.679v16.638
				c0,3.056-1.626,4.679-4.679,4.679h-3.64c-3.056,0-4.679-1.623-4.679-4.679V54.508z M80.61,71.635c0.846,0,1.3-0.425,1.3-1.3
				V55.32c0-0.843-0.453-1.3-1.3-1.3h-1.883c-0.846,0-1.3,0.457-1.3,1.3v15.015c0,0.875,0.453,1.3,1.3,1.3H80.61z"/>
			<path class="st0" d="M94.569,71.536h7.733c0.358,0,0.52,0.193,0.52,0.52v3.25c0,0.358-0.162,0.52-0.52,0.52H90.67
				c-0.327,0-0.52-0.162-0.52-0.52V50.349c0-0.323,0.193-0.52,0.52-0.52h3.38c0.355,0,0.52,0.197,0.52,0.52V71.536z"/>
			<path class="st0" d="M118.436,75.826c-0.292,0-0.453-0.162-0.52-0.457l-0.907-4.743h-5.786l-0.878,4.743
				c-0.063,0.295-0.228,0.457-0.52,0.457h-3.475c-0.358,0-0.52-0.197-0.425-0.552l5.396-24.989c0.063-0.327,0.26-0.457,0.552-0.457
				h4.518c0.292,0,0.485,0.13,0.552,0.457l5.393,24.989c0.067,0.355-0.063,0.552-0.453,0.552H118.436z M114.115,55.516l-2.08,11.34
				h4.16L114.115,55.516z"/>
		</g>
		<g>
			<path class="st0" d="M176.536,59.35c0,0.327-0.197,0.52-0.52,0.52h-3.25c-0.358,0-0.52-0.193-0.52-0.52v-2.6
				c0-0.846-0.457-1.3-1.3-1.3h-1.69c-0.878,0-1.3,0.453-1.3,1.3v14.818c0,0.878,0.453,1.3,1.3,1.3h1.69c0.843,0,1.3-0.422,1.3-1.3
				v-2.6c0-0.327,0.162-0.52,0.52-0.52h3.25c0.323,0,0.52,0.193,0.52,0.52v3.51c0,3.056-1.658,4.679-4.679,4.679h-3.64
				c-3.056,0-4.711-1.623-4.711-4.679V55.84c0-3.056,1.655-4.679,4.711-4.679h3.64c3.021,0,4.679,1.623,4.679,4.679V59.35z"/>
			<path class="st0" d="M180.581,55.84c0-3.056,1.623-4.679,4.679-4.679h3.64c3.053,0,4.679,1.623,4.679,4.679v16.638
				c0,3.056-1.626,4.679-4.679,4.679h-3.64c-3.056,0-4.679-1.623-4.679-4.679V55.84z M188.086,72.967c0.846,0,1.3-0.425,1.3-1.3
				V56.652c0-0.843-0.453-1.3-1.3-1.3h-1.883c-0.846,0-1.3,0.457-1.3,1.3v15.015c0,0.875,0.453,1.3,1.3,1.3H188.086z"/>
			<path class="st0" d="M215.497,51.161c0.422,0,0.65,0.228,0.65,0.65v24.697c0,0.422-0.228,0.65-0.65,0.65h-3.021
				c-0.425,0-0.65-0.228-0.65-0.65V61.883h-0.228l-3.218,14.692c-0.095,0.387-0.323,0.583-0.713,0.583h-1.595
				c-0.387,0-0.615-0.197-0.713-0.583l-3.218-14.692h-0.228v14.625c0,0.422-0.225,0.65-0.647,0.65h-2.993
				c-0.422,0-0.647-0.228-0.647-0.65V51.811c0-0.422,0.225-0.65,0.647-0.65h4.293c0.387,0,0.615,0.197,0.713,0.583l3.608,16.185
				l3.605-16.185c0.098-0.387,0.327-0.583,0.717-0.583H215.497z"/>
			<path class="st0" d="M220.186,51.681c0-0.323,0.197-0.52,0.52-0.52h7.799c3.056,0,4.679,1.623,4.679,4.679v7.929
				c0,3.021-1.623,4.679-4.679,4.679h-3.9v8.189c0,0.323-0.162,0.52-0.52,0.52h-3.38c-0.323,0-0.52-0.197-0.52-0.52V51.681z
				 M227.465,64.159c0.878,0,1.3-0.488,1.3-1.3V56.75c0-0.846-0.422-1.3-1.3-1.3h-2.86v8.709H227.465z"/>
			<path class="st0" d="M247.825,77.158c-0.292,0-0.453-0.162-0.52-0.457l-0.907-4.743h-5.786l-0.878,4.743
				c-0.063,0.295-0.228,0.457-0.52,0.457h-3.475c-0.358,0-0.52-0.197-0.425-0.552l5.396-24.989c0.063-0.327,0.26-0.457,0.552-0.457
				h4.518c0.292,0,0.485,0.13,0.552,0.457l5.393,24.989c0.067,0.355-0.063,0.552-0.453,0.552H247.825z M243.504,56.848l-2.08,11.34
				h4.16L243.504,56.848z"/>
			<path class="st0" d="M268.474,51.161c0.327,0,0.52,0.197,0.52,0.52v24.957c0,0.323-0.193,0.52-0.52,0.52h-3.218
				c-0.292,0-0.485-0.13-0.583-0.422l-4.971-13.877h-0.165v13.779c0,0.323-0.162,0.52-0.52,0.52h-3.38
				c-0.323,0-0.52-0.197-0.52-0.52V51.681c0-0.323,0.197-0.52,0.52-0.52h3.218c0.295,0,0.488,0.13,0.587,0.422l4.939,13.813h0.193
				V51.681c0-0.323,0.162-0.52,0.52-0.52H268.474z"/>
			<path class="st0" d="M287.924,51.161c0.488,0,0.716,0.292,0.52,0.748l-5.948,14.46v10.139c0,0.422-0.228,0.65-0.65,0.65h-3.12
				c-0.422,0-0.65-0.228-0.65-0.65V66.369l-5.948-14.46c-0.193-0.457,0.035-0.748,0.52-0.748h3.253c0.387,0,0.615,0.162,0.745,0.52
				l3.64,9.327l3.64-9.327c0.13-0.358,0.358-0.52,0.748-0.52H287.924z"/>
		</g>
		<g>
			<g>
				<path class="st0" d="M121.176,7.422c0,0.599-0.241,1.018-0.957,1.018h-14.78v9.216h11.249c0.599,0,0.957,0.358,0.957,1.015
					v5.925c0,0.659-0.358,1.018-0.957,1.018h-11.249v8.858h14.78c0.717,0,0.957,0.298,0.957,0.957v5.983
					c0,0.599-0.241,0.957-0.957,0.957H98.197c-0.539,0-0.897-0.358-0.897-0.957V1.436c0-0.596,0.358-0.957,0.897-0.957h22.022
					c0.717,0,0.957,0.361,0.957,0.957V7.422z"/>
			</g>
			<g>
				<path class="st0" d="M151.973,21.124c0,3.472-1.138,5.925-3.351,7.301l3.11,12.865c0.181,0.72-0.178,1.078-0.837,1.078h-5.865
					c-0.599,0-0.897-0.298-1.018-0.837l-2.872-11.791h-5.326v11.67c0,0.599-0.358,0.957-0.957,0.957h-5.862
					c-0.599,0-0.957-0.358-0.957-0.957V1.436c0-0.596,0.358-0.957,0.957-0.957h14.362c5.624,0,8.617,2.993,8.617,8.617V21.124z
					 M141.8,22.025c1.557,0,2.394-0.84,2.394-2.397v-9.036c0-1.553-0.837-2.394-2.394-2.394h-5.986v13.826H141.8z"/>
			</g>
			<g>
				<path class="st0" d="M160.394,42.369c-0.659,0-0.957-0.358-0.957-0.957V1.436c0-0.596,0.298-0.957,0.957-0.957h6.223
					c0.596,0,0.957,0.361,0.957,0.957v39.975c0,0.599-0.361,0.957-0.957,0.957H160.394z"/>
			</g>
			<g>
				<path class="st0" d="M196.229,0.479c0.659,0,0.957,0.361,0.957,0.957v5.986c0,0.599-0.298,0.957-0.957,0.957h-6.94v33.032
					c0,0.659-0.301,0.957-0.957,0.957h-6.223c-0.599,0-0.957-0.298-0.957-0.957V8.379h-6.943c-0.596,0-0.957-0.358-0.957-0.957
					V1.436c0-0.596,0.361-0.957,0.957-0.957H196.229z"/>
			</g>
			<g>
				<path class="st0" d="M221.11,42.369c-0.539,0-0.837-0.298-0.957-0.837l-1.915-7.542h-11.252l-1.855,7.542
					c-0.12,0.539-0.418,0.837-0.957,0.837h-5.865c-0.656,0-0.957-0.358-0.777-1.018l9.933-40.032c0.12-0.599,0.479-0.84,1.018-0.84
					h8.319c0.539,0,0.897,0.241,1.018,0.84l9.933,40.032c0.181,0.659-0.12,1.018-0.837,1.018H221.11z M212.613,10.773l-3.773,16.277
					h7.542L212.613,10.773z"/>
			</g>
			<g>
				<path class="st0" d="M232.878,9.096c0-5.624,2.993-8.617,8.617-8.617h6.702c5.564,0,8.617,2.993,8.617,8.617v4.429
					c0,0.599-0.361,0.957-0.957,0.957h-5.624c-0.659,0-0.957-0.358-0.957-0.957v-2.933c0-1.553-0.84-2.394-2.397-2.394h-3.83
					c-1.614,0-2.39,0.84-2.39,2.394v21.663c0,1.617,0.837,2.394,2.39,2.394h3.83c1.557,0,2.397-0.777,2.397-2.394V27.05h-3.113
					c-0.659,0-0.957-0.358-0.957-0.957V20.11c0-0.659,0.298-0.957,0.957-0.957h9.695c0.596,0,0.957,0.298,0.957,0.957v13.642
					c0,5.624-3.053,8.617-8.617,8.617h-6.702c-5.624,0-8.617-2.993-8.617-8.617V9.096z"/>
			</g>
			<g>
				<path class="st0" d="M288.151,7.422c0,0.599-0.241,1.018-0.957,1.018h-14.78v9.216h11.249c0.599,0,0.957,0.358,0.957,1.015
					v5.925c0,0.659-0.358,1.018-0.957,1.018h-11.249v8.858h14.78c0.716,0,0.957,0.298,0.957,0.957v5.983
					c0,0.599-0.241,0.957-0.957,0.957h-22.022c-0.539,0-0.897-0.358-0.897-0.957V1.436c0-0.596,0.358-0.957,0.897-0.957h22.022
					c0.716,0,0.957,0.361,0.957,0.957V7.422z"/>
			</g>
			<g>
				<path class="st0" d="M81.699,0.85c0-0.532,0.358-0.85,0.957-0.85h6.163c0.717,0,1.018,0.318,1.018,0.85v40.783
					c0,0.532-0.301,0.85-1.018,0.85h-6.163c-0.599,0-0.957-0.318-0.957-0.85V24.747h-7.66v16.886c0,0.532-0.358,0.85-0.957,0.85
					h-6.163c-0.72,0-1.018-0.318-1.018-0.85V0.85C65.9,0.318,66.198,0,66.918,0h6.163c0.599,0,0.957,0.318,0.957,0.85v16.886h7.66
					V0.85z"/>
			</g>
		</g>
		<g>
			<path class="st0" d="M149.296,49.615c-0.194-0.097-0.403-0.106-0.597-0.018c-0.194,0.082-0.345,0.246-0.417,0.45
				c-1.79,5.075-3.921,9.984-5.766,14.113c-1.877,4.121-4.147,8.965-6.747,13.633c-0.104,0.189-0.13,0.414-0.07,0.623
				c0.064,0.207,0.206,0.38,0.391,0.471c1.813,0.903,3.646,1.335,5.439,1.335c5.169,0,9.997-3.619,12.927-10.121
				C158.401,61.36,156.325,53.128,149.296,49.615z"/>
			<g>
				<path class="st0" d="M136.33,64.491c0.685-1.446,1.352-1.541,2.351-1.068c0.999,0.473,1.281,1.051,0.596,2.497
					c-0.685,1.446-2.803,2.163-2.803,2.163S135.645,65.937,136.33,64.491z"/>
			</g>
			<g>
				<path class="st0" d="M133.561,75.243c0.338,1.288-0.014,1.7-0.861,1.922s-1.316,0-1.654-1.288
					c-0.338-1.288,0.564-2.862,0.564-2.862S133.223,73.955,133.561,75.243z"/>
			</g>
			<g>
				<path class="st0" d="M143.986,48.211c1.709,0.041,2.092,0.652,2.063,1.833c-0.028,1.181-0.471,1.707-2.18,1.666
					c-1.709-0.041-3.328-1.798-3.328-1.798S142.277,48.17,143.986,48.211z"/>
			</g>
			<g>
				<path class="st0" d="M130.947,57.09c0.184-1.339,0.698-1.586,1.624-1.459c0.926,0.127,1.3,0.522,1.116,1.861
					c-0.184,1.339-1.709,2.456-1.709,2.456S130.763,58.429,130.947,57.09z"/>
			</g>
			<g>
				<path class="st0" d="M132.553,67.405c-0.825-1.031-0.967-1.631-0.255-2.201c0.712-0.57,1.366-0.406,2.191,0.624
					s0.937,2.322,0.468,2.697C134.488,68.902,133.377,68.436,132.553,67.405z"/>
			</g>
			<g>
				<path class="st0" d="M136.238,56.279c0.958-0.91,1.545-1.102,2.174-0.44c0.629,0.662,0.52,1.328-0.438,2.238
					c-0.958,0.91-2.237,1.131-2.651,0.694C134.908,58.336,135.279,57.189,136.238,56.279z"/>
			</g>
			<g>
				<path class="st0" d="M134.317,60.449c0.249-0.154,0.594-0.231,0.859-0.283c0.291-0.057,0.598-0.056,0.893-0.032
					c0.052,0.004,0.106,0.01,0.151,0.037c0.18,0.106,0.088,0.372,0.274,0.474c0.06,0.033,0.128,0.05,0.189,0.083
					c0.152,0.084,0.23,0.259,0.27,0.428c0.056,0.236,0.061,0.49,0.006,0.726c-0.059,0.256-0.298,0.375-0.384,0.595
					c-0.062,0.16-0.549,0.473-1.066,0.74c-0.593,0.306-1.289,0.465-1.946,0.558c-0.059,0.008-0.133-0.018-0.139-0.077
					c-0.182,0.025-0.368,0.03-0.551,0.015c-0.073-0.006-0.158-0.023-0.191-0.089c-0.093-0.185-0.597-0.093-0.51-0.399
					c0.008-0.029,0.024-0.057,0.026-0.087c0.004-0.055-0.036-0.101-0.064-0.149c-0.077-0.13-0.072-0.296-0.021-0.438
					c0.078-0.218,0.249-0.488,0.449-0.61c0.208-0.127,0.447-0.19,0.671-0.284c0.217-0.091,0.43-0.204,0.573-0.397
					c0.167-0.225,0.155-0.5,0.366-0.702C134.214,60.519,134.263,60.482,134.317,60.449z"/>
			</g>
			<g>
				<path class="st0" d="M133.872,70.89c0.055-0.254,0.218-0.522,0.348-0.722c0.143-0.221,0.333-0.417,0.529-0.59
					c0.035-0.031,0.072-0.061,0.117-0.074c0.178-0.05,0.291,0.173,0.471,0.117c0.058-0.018,0.111-0.051,0.169-0.069
					c0.147-0.045,0.307,0.013,0.44,0.091c0.185,0.109,0.351,0.263,0.468,0.443c0.127,0.196,0.056,0.421,0.144,0.612
					c0.064,0.138-0.036,0.642-0.184,1.136c-0.169,0.567-0.497,1.109-0.842,1.586c-0.031,0.043-0.094,0.074-0.135,0.041
					c-0.096,0.132-0.207,0.253-0.33,0.361c-0.049,0.043-0.112,0.086-0.174,0.067c-0.175-0.054-0.427,0.324-0.569,0.081
					c-0.014-0.023-0.022-0.05-0.04-0.07c-0.033-0.036-0.087-0.039-0.134-0.051c-0.13-0.031-0.233-0.136-0.292-0.256
					c-0.091-0.184-0.158-0.459-0.113-0.663c0.047-0.211,0.154-0.403,0.232-0.603c0.076-0.195,0.135-0.4,0.099-0.611
					c-0.041-0.245-0.224-0.407-0.223-0.666C133.854,70.999,133.86,70.945,133.872,70.89z"/>
			</g>
			<g>
				<path class="st0" d="M139.548,56.461c-0.166-0.159-0.292-0.406-0.383-0.596c-0.1-0.21-0.16-0.443-0.2-0.671
					c-0.007-0.04-0.013-0.083-0.002-0.122c0.045-0.158,0.265-0.14,0.306-0.301c0.013-0.052,0.013-0.107,0.026-0.159
					c0.034-0.132,0.151-0.225,0.272-0.289c0.168-0.089,0.36-0.143,0.55-0.148c0.206-0.005,0.343,0.152,0.527,0.174
					c0.134,0.016,0.467,0.324,0.771,0.664c0.349,0.39,0.606,0.887,0.806,1.368c0.018,0.043,0.012,0.105-0.031,0.121
					c0.055,0.134,0.095,0.273,0.12,0.416c0.01,0.057,0.013,0.124-0.03,0.162c-0.122,0.107,0.047,0.472-0.202,0.466
					c-0.024-0.001-0.048-0.007-0.071-0.002c-0.042,0.008-0.07,0.047-0.1,0.078c-0.083,0.084-0.21,0.112-0.328,0.102
					c-0.181-0.016-0.419-0.093-0.551-0.221c-0.137-0.133-0.232-0.302-0.347-0.453c-0.112-0.147-0.239-0.286-0.414-0.357
					c-0.203-0.082-0.41-0.019-0.605-0.14C139.621,56.526,139.584,56.496,139.548,56.461z"/>
			</g>
			<g>
				<path class="st0" d="M133.378,54.763c-0.135-0.179-0.217-0.438-0.275-0.637c-0.063-0.218-0.084-0.453-0.085-0.68
					c0-0.04,0.001-0.082,0.018-0.118c0.068-0.145,0.278-0.093,0.343-0.241c0.021-0.048,0.029-0.101,0.051-0.15
					c0.054-0.122,0.182-0.193,0.309-0.235c0.176-0.059,0.37-0.08,0.555-0.055c0.2,0.028,0.307,0.202,0.481,0.253
					c0.127,0.037,0.399,0.387,0.638,0.764c0.275,0.432,0.443,0.953,0.56,1.448c0.01,0.044-0.005,0.103-0.05,0.112
					c0.032,0.138,0.048,0.279,0.049,0.42c0,0.056-0.007,0.122-0.055,0.152c-0.135,0.084-0.03,0.463-0.27,0.417
					c-0.023-0.004-0.045-0.014-0.068-0.014c-0.042,0.001-0.075,0.034-0.109,0.059c-0.094,0.068-0.221,0.075-0.333,0.046
					c-0.172-0.044-0.39-0.157-0.497-0.302c-0.111-0.15-0.176-0.329-0.263-0.493c-0.084-0.16-0.185-0.315-0.343-0.411
					c-0.183-0.112-0.393-0.084-0.562-0.231C133.439,54.837,133.407,54.802,133.378,54.763z"/>
			</g>
			<g>
				<path class="st0" d="M128.577,69.71c0-0.021-0.005-0.04-0.015-0.058c-0.017-0.032-0.048-0.051-0.073-0.075
					c-0.28-0.267,0.185-0.918,0.448-1.067c0.33-0.187,0.734-0.06,1.065-0.019c0.35,0.043,1.063-0.204,1.311,0.13
					c0.077,0.104,0.078,0.252,0.093,0.388c0.041,0.385,0.281,0.626,0.47,0.923c0.329,0.516-0.079,1.683-0.45,2.162
					c-0.158,0.204-0.394,0.318-0.624,0.405c-0.124,0.047-0.253,0.09-0.379,0.08c-0.223-0.017-0.273-0.24-0.457-0.325
					c-0.218-0.101-0.486-0.096-0.727-0.05c-0.088,0.017-0.179,0.039-0.263,0.017c-0.22-0.058-0.263-0.361-0.27-0.609
					c-0.015-0.533-1.125-1.001-0.371-1.605c0.06-0.048,0.128-0.085,0.179-0.142C128.551,69.821,128.578,69.763,128.577,69.71z"/>
			</g>
			<g>
				<path class="st0" d="M140.55,58.611c0.021-0.001,0.041-0.006,0.059-0.016c0.032-0.019,0.051-0.05,0.075-0.077
					c0.267-0.293,0.943,0.167,1.102,0.432c0.199,0.333,0.079,0.749,0.046,1.088c-0.035,0.359,0.235,1.082-0.101,1.344
					c-0.104,0.081-0.256,0.086-0.395,0.105c-0.392,0.052-0.634,0.302-0.932,0.503c-0.519,0.348-1.723-0.04-2.222-0.407
					c-0.213-0.157-0.334-0.395-0.429-0.628c-0.051-0.125-0.098-0.256-0.091-0.386c0.012-0.229,0.239-0.286,0.321-0.475
					c0.098-0.226,0.087-0.499,0.034-0.744c-0.019-0.09-0.044-0.182-0.024-0.269c0.054-0.227,0.363-0.278,0.616-0.291
					c0.544-0.028,0.996-1.174,1.632-0.419c0.05,0.06,0.09,0.129,0.15,0.18C140.435,58.587,140.496,58.613,140.55,58.611z"/>
			</g>
			<g>
				<path class="st0" d="M131.388,60.721c0.013,0.007,0.027,0.012,0.041,0.012c0.026,0.001,0.049-0.011,0.073-0.018
					c0.267-0.075,0.497,0.448,0.493,0.664c-0.005,0.271-0.23,0.473-0.376,0.662c-0.154,0.2-0.262,0.728-0.557,0.759
					c-0.092,0.01-0.184-0.044-0.273-0.084c-0.252-0.115-0.488-0.055-0.739-0.047c-0.437,0.014-1.007-0.662-1.166-1.064
					c-0.068-0.172-0.052-0.358-0.022-0.531c0.016-0.093,0.037-0.188,0.089-0.262c0.092-0.131,0.247-0.081,0.366-0.163
					c0.142-0.097,0.236-0.264,0.296-0.429c0.022-0.06,0.041-0.124,0.086-0.168c0.116-0.114,0.318-0.03,0.473,0.056
					c0.333,0.185,1.025-0.327,1.123,0.357c0.008,0.054,0.005,0.109,0.022,0.162C131.329,60.664,131.355,60.702,131.388,60.721z"/>
			</g>
			<g>
				<path class="st0" d="M143.554,52.608c0.015-0.001,0.029-0.004,0.041-0.011c0.022-0.013,0.036-0.035,0.053-0.054
					c0.186-0.205,0.659,0.117,0.77,0.302c0.139,0.233,0.055,0.523,0.032,0.761c-0.025,0.251,0.164,0.757-0.07,0.939
					c-0.073,0.057-0.179,0.06-0.276,0.073c-0.274,0.036-0.443,0.211-0.651,0.351c-0.363,0.244-1.204-0.028-1.553-0.285
					c-0.149-0.11-0.234-0.276-0.3-0.439c-0.036-0.088-0.069-0.179-0.064-0.27c0.008-0.16,0.167-0.2,0.225-0.332
					c0.069-0.158,0.061-0.349,0.024-0.52c-0.014-0.063-0.031-0.127-0.017-0.188c0.038-0.158,0.254-0.194,0.431-0.204
					c0.38-0.02,0.696-0.821,1.141-0.293c0.035,0.042,0.063,0.09,0.105,0.126C143.474,52.592,143.516,52.61,143.554,52.608z"/>
			</g>
			<g>
				<path class="st0" d="M137.312,53.117c-0.02,0-0.039,0.005-0.056,0.014c-0.03,0.017-0.049,0.046-0.073,0.071
					c-0.258,0.27-0.885-0.178-1.028-0.432c-0.18-0.318-0.058-0.707-0.019-1.027c0.041-0.338-0.197-1.025,0.125-1.264
					c0.1-0.074,0.243-0.076,0.375-0.09c0.371-0.04,0.604-0.271,0.89-0.453c0.497-0.317,1.623,0.076,2.085,0.434
					c0.197,0.153,0.306,0.38,0.391,0.601c0.045,0.119,0.087,0.244,0.077,0.366c-0.016,0.215-0.231,0.264-0.313,0.441
					c-0.098,0.21-0.093,0.468-0.049,0.701c0.016,0.085,0.037,0.173,0.016,0.254c-0.056,0.212-0.348,0.254-0.587,0.261
					c-0.514,0.014-0.965,1.084-1.548,0.358c-0.046-0.058-0.082-0.123-0.137-0.173C137.42,53.142,137.363,53.116,137.312,53.117z"/>
			</g>
			<g>
				<path class="st0" d="M130.218,66.072c0.173-0.134,0.32-0.355,0.427-0.525c0.118-0.187,0.201-0.4,0.265-0.61
					c0.011-0.037,0.022-0.076,0.016-0.114c-0.023-0.151-0.23-0.152-0.25-0.305c-0.006-0.05,0.001-0.101-0.006-0.151
					c-0.016-0.126-0.115-0.222-0.22-0.291c-0.146-0.096-0.319-0.162-0.496-0.182c-0.191-0.021-0.338,0.114-0.512,0.12
					c-0.127,0.004-0.473,0.264-0.797,0.557c-0.371,0.335-0.669,0.778-0.912,1.21c-0.022,0.039-0.024,0.097,0.015,0.115
					c-0.067,0.12-0.121,0.247-0.16,0.378c-0.016,0.052-0.027,0.115,0.009,0.154c0.101,0.109-0.099,0.436,0.134,0.451
					c0.022,0.001,0.045-0.003,0.066,0.003c0.039,0.011,0.06,0.05,0.084,0.081c0.068,0.085,0.183,0.122,0.294,0.121
					c0.17,0,0.402-0.053,0.54-0.162c0.143-0.113,0.252-0.263,0.377-0.395c0.121-0.128,0.257-0.248,0.428-0.3
					c0.199-0.06,0.384,0.015,0.58-0.081C130.142,66.126,130.181,66.101,130.218,66.072z"/>
			</g>
		</g>
	</g>
	<path class="st0" d="M57.465,36.83c0.007-0.093-0.14-0.177-0.433-0.238c-0.283-0.062-0.665-0.094-1.049-0.087
		c-9.576,0.162-19.146,0.161-27.239,0.14c-8.102-0.035-17.678-0.102-27.225-0.328c-0.385-0.009-0.768,0.019-1.06,0.079
		c-0.284,0.06-0.454,0.146-0.457,0.234c-0.052,0.868,0.672,1.664,2.062,2.37c4.007,2.036,13.587,3.319,26.348,3.362
		C45.576,42.422,57.247,40.198,57.465,36.83z"/>
</g>
</svg>