<!-- Generator: Adobe Illustrator 22.1.0, SVG Export Plug-In  -->
<svg version="1.1"
	 xmlns="http://www.w3.org/2000/svg" xmlns:xlink="http://www.w3.org/1999/xlink" xmlns:a="http://ns.adobe.com/AdobeSVGViewerExtensions/3.0/"
	 x="0px" y="0px" width="238.527px" height="178.127px" viewBox="0 0 238.527 178.127"
	 style="enable-background:new 0 0 238.527 178.127;" xml:space="preserve">
<style type="text/css">
	.st0{fill:#F7A2A4;}
	.st1{fill:#4F2414;}
	.st2{fill:#FFFFFF;}
</style>
<defs>
</defs>
<g>
	<g>
		<g>
			<path class="st0" d="M198.064,110.22c9.909-12.896,9.891-20.469,9.891-20.469l-9.639,1.37l-0.519-11.538l-20.203,11.923
				c0,0,0.982,5.647,6.745,10.578C190.767,107.584,198.064,110.22,198.064,110.22z"/>
		</g>
		<g>
			<path class="st1" d="M184.719,127.346c-0.744,0-1.484-0.299-2.028-0.888c-1.033-1.119-0.963-2.864,0.157-3.897
				c15.301-14.114,20.13-24.533,21.652-29.533l-5.798,0.824c-0.771,0.108-1.55-0.111-2.148-0.608
				c-0.598-0.496-0.96-1.222-0.994-1.999l-0.314-6.955l-20.263,11.963c-1.311,0.774-3.003,0.339-3.777-0.972
				c-0.775-1.312-0.339-3.003,0.973-3.778l24.214-14.294c0.834-0.492,1.863-0.513,2.716-0.051c0.851,0.461,1.399,1.334,1.442,2.302
				l0.382,8.504l6.633-0.942c0.79-0.113,1.589,0.123,2.193,0.644c0.603,0.523,0.951,1.28,0.953,2.078
				c0.002,0.595-0.234,14.834-24.123,36.871C186.058,127.105,185.387,127.346,184.719,127.346z"/>
		</g>
	</g>
	<g>
		<path class="st1" d="M180.191,126.09c4.599,9.986-32.209,19.274-70.441,19.274s-89.425-27.904-89.425-38.547
			c0-10.645,51.193,0,89.425,0c10.845,0,31.709,2.85,31.709,2.85s-8.95,10.942-5.18,9.391c8.044-3.31,18.756,2.896,18.756,2.896
			C160.319,117.402,176.316,117.678,180.191,126.09z"/>
	</g>
	<g>
		<g>
			<path class="st0" d="M180.789,45.18c15.783-50.915-2.125-40.389-11.21-41.842c-6.667-1.066-11.851-0.616-20.175,0.987
				c-5.68,1.094-9.017,3.574-10.805,5.436c-11.321-3.846-23.982-5.515-37.14-4.259c-11.914,1.138-22.976,4.555-32.673,9.586
				c-1.573-1.473-5.637-4.413-13.024-4.413c-8.477,0.001-13.653,0.541-19.996,2.85c-8.582,3.124-27.927-3.688-3.629,42.184
				c-2.071,6.409-2.896,13.023-2.269,19.582c3.073,32.181,39.676,48.573,82.505,44.483c42.83-4.091,75.666-27.115,72.593-59.296
				C184.462,55.197,183.023,50.061,180.789,45.18z"/>
			<path class="st1" d="M99.617,123.148c-0.002,0-0.003,0-0.005,0c-19.308-0.001-36.321-4.189-49.2-12.112
				c-13.831-8.508-21.884-20.778-23.288-35.484c-0.616-6.441,0.071-13.02,2.041-19.572C15.821,30.539,16.605,22.293,18.804,17.96
				c2.438-4.804,7.598-5.555,11.744-6.158c1.615-0.235,3.141-0.457,4.274-0.87c6.962-2.534,12.731-3.015,20.94-3.016
				c6.565-0.001,10.872,2.082,13.379,3.899c9.998-4.936,20.773-7.983,32.056-9.06c2.952-0.282,5.947-0.424,8.9-0.424
				c9.526,0,18.873,1.445,27.809,4.297c2.241-1.914,5.749-4.004,10.976-5.011C154.843,0.468,158.815,0,162.595,0
				c2.41,0,4.837,0.201,7.42,0.614c0.513,0.082,1.137,0.122,1.908,0.122c0.769,0,1.588-0.038,2.455-0.078
				c0.931-0.043,1.894-0.088,2.868-0.088c3.238,0,7.299,0.467,9.98,4.105c2.918,3.959,5.135,12.131-3.496,40.327
				c2.152,4.957,3.491,10.069,3.982,15.212c1.564,16.377-5.396,31.114-20.13,42.618c-13.586,10.607-33.099,17.599-54.945,19.686
				C108.259,122.936,103.878,123.148,99.617,123.148z M55.763,13.432c-7.75,0.001-12.824,0.416-19.053,2.684
				c-1.665,0.606-3.547,0.88-5.366,1.145c-3.912,0.569-6.556,1.099-7.62,3.194c-1.593,3.14-1.004,11.58,10.851,33.961
				c0.349,0.659,0.417,1.43,0.187,2.139c-2.004,6.202-2.727,12.417-2.147,18.472c1.234,12.917,8.387,23.744,20.688,31.31
				c12.009,7.387,28.023,11.293,46.31,11.294c0.002,0,0.003,0,0.006,0c4.088,0,8.291-0.204,12.494-0.605
				c20.813-1.988,39.308-8.573,52.075-18.543c13.174-10.286,19.41-23.338,18.034-37.745c-0.464-4.864-1.79-9.713-3.94-14.411
				c-0.282-0.617-0.327-1.317-0.126-1.964c7.7-24.843,6.768-33.515,4.63-36.416c-0.974-1.322-2.578-1.861-5.539-1.861
				c-0.847,0-1.744,0.041-2.613,0.081c-0.892,0.041-1.814,0.084-2.71,0.084c-1.082,0-1.965-0.061-2.781-0.191
				c-2.322-0.371-4.404-0.545-6.548-0.545c-3.406,0-7.076,0.44-12.669,1.517c-4.952,0.955-7.811,3.049-9.337,4.638
				c-0.742,0.771-1.862,1.044-2.876,0.701c-8.839-3.002-18.13-4.525-27.614-4.525c-2.78,0-5.598,0.134-8.376,0.4
				c-11.19,1.068-21.844,4.193-31.665,9.288c-1.039,0.538-2.301,0.365-3.155-0.435C65.723,15.997,62.28,13.432,55.763,13.432z"/>
		</g>
		<g>
			<path class="st2" d="M158.114,83.237c2.14,22.408-18.39,38.216-45.334,40.791c-26.943,2.573-50.096-9.064-52.236-31.471
				c-2.14-22.407,17.692-45.523,44.635-48.097C132.123,41.886,155.973,60.829,158.114,83.237z"/>
			<path class="st1" d="M105.489,127.137c-12.56,0-23.687-3.025-32.179-8.749c-9.138-6.159-14.502-15.001-15.512-25.571
				c-1.11-11.623,3.305-23.87,12.113-33.599c9.049-9.996,21.482-16.213,35.006-17.506c1.719-0.164,3.462-0.247,5.184-0.247
				c25.802,0,48.572,18.621,50.759,41.509c1.096,11.481-3.417,22.202-12.709,30.187c-8.66,7.442-21.129,12.276-35.108,13.611
				C110.509,127.015,107.968,127.137,105.489,127.137z M110.101,46.983c-1.547,0-3.114,0.074-4.659,0.222
				C80.917,49.547,61.219,70.617,63.29,92.293c0.847,8.872,5.379,16.314,13.103,21.521c7.469,5.034,17.802,7.807,29.095,7.807
				c2.305,0,4.67-0.115,7.029-0.34c27.107-2.589,44.728-18.126,42.851-37.782C153.445,63.363,133.138,46.983,110.101,46.983z"/>
		</g>
		<g>
			<path class="st1" d="M90.282,80.753c0.241,2.518-0.871,4.686-2.483,4.84c-1.611,0.154-3.114-1.763-3.355-4.282
				c-0.24-2.519,0.872-4.686,2.483-4.84C88.539,76.317,90.041,78.233,90.282,80.753z"/>
		</g>
		<g>
			<path class="st1" d="M132.516,76.719c0.241,2.519-0.869,4.686-2.483,4.84c-1.611,0.154-3.113-1.763-3.354-4.282
				c-0.241-2.519,0.871-4.686,2.483-4.84C130.775,72.283,132.276,74.2,132.516,76.719z"/>
		</g>
		<g>
			<path class="st1" d="M121.875,94.89c0.512,5.347-5.106,8.459-12.335,9.148c-7.229,0.691-13.333-1.3-13.844-6.647
				c-0.511-5.348,4.837-11.261,12.067-11.951C114.993,84.748,121.365,89.542,121.875,94.89z"/>
		</g>
		<g>
			<path class="st2" d="M105.137,95.91c0.107,1.126-0.718,2.126-1.844,2.233c-1.126,0.108-2.125-0.717-2.232-1.843
				c-0.108-1.125,0.717-2.124,1.843-2.232C104.029,93.959,105.029,94.784,105.137,95.91z"/>
		</g>
		<g>
			<path class="st2" d="M116.598,94.816c0.108,1.125-0.718,2.125-1.845,2.233c-1.125,0.108-2.125-0.718-2.232-1.843
				c-0.108-1.125,0.718-2.125,1.843-2.233C115.491,92.864,116.49,93.69,116.598,94.816z"/>
		</g>
		<g>
			<path class="st0" d="M142.619,90.77c0.34,3.562-2.222,6.722-5.725,7.057c-3.502,0.335-6.615-2.285-6.956-5.847
				c-0.34-3.562,2.223-6.723,5.725-7.057C139.165,84.589,142.279,87.207,142.619,90.77z"/>
		</g>
		<g>
			<path class="st0" d="M88.785,95.913c0.339,3.561-2.222,6.722-5.724,7.056c-3.5,0.335-6.616-2.283-6.956-5.845
				c-0.341-3.564,2.222-6.724,5.723-7.059C85.331,89.731,88.444,92.349,88.785,95.913z"/>
		</g>
	</g>
	<g>
		<g>
			<path class="st0" d="M40.266,164.135c-6.476-3.894-8.395-11.336-8.628-13.108c-0.18,1.789-1.425,9.355-7.587,13.744
				c-5.427,3.818-12.413,1.722-12.427,1.725c-8.902-2.643-8.803-16.13-8.784-16.143c-0.797-16.838,4.451-28.459,9.255-36.222
				c7.051-11.753,17.032-11.901,17.635-11.915c0.603-0.034,10.565-0.665,18.572,10.503c5.289,7.364,11.4,18.542,11.917,35.389
				c0.02,0.012,1.253,13.449-7.461,16.781C52.743,164.885,45.969,167.52,40.266,164.135z M28,137.336
				c0.28,2.471,1.684,3.209,3.568,3.136c1.883-0.073,3.296-1.359,3.229-3.397c-0.061-1.862-1.334-3.686-3.498-3.601
				C29.306,133.55,27.744,135.484,28,137.336z"/>
			<path class="st1" d="M16.148,169.826c-2.526,0-4.489-0.461-5.222-0.662c-0.03-0.007-0.059-0.015-0.087-0.024
				c-5.408-1.606-9.084-6.658-10.349-14.227c-0.225-1.342-0.324-2.494-0.368-3.223c-0.026-0.433-0.051-0.848-0.038-1.24
				c-0.65-13.855,2.512-26.211,9.666-37.771c7.353-12.256,17.754-13.167,19.871-13.22c0.128-0.007,0.366-0.019,0.706-0.019
				c2.78,0,12.454,0.841,20.218,11.67c7.942,11.059,12.009,23.133,12.433,36.911h-0.011c0.154,1.036,0.169,2.593-0.076,4.998
				c-0.747,7.345-3.996,12.475-9.146,14.444c-0.032,0.013-0.064,0.024-0.096,0.035c-0.97,0.345-3.502,1.122-6.665,1.122
				c-3.028,0-5.761-0.711-8.124-2.114c-3.205-1.927-5.404-4.52-6.902-7.015c-1.302,2.617-3.286,5.374-6.305,7.524
				C23.035,168.858,19.753,169.826,16.148,169.826z M12.376,163.841c0,0,0.001,0.001,0.001,0.001
				c0.284,0.078,1.805,0.468,3.771,0.468c2.499,0,4.624-0.604,6.316-1.796c5.49-3.91,6.35-10.972,6.43-11.764
				c0.14-1.392,1.302-2.46,2.702-2.481c0.014-0.001,0.029-0.001,0.043-0.001c1.381,0,2.553,1.024,2.734,2.398
				c0.009,0.073,1.233,7.449,7.315,11.105c1.486,0.882,3.272,1.333,5.294,1.333c2.448,0,4.442-0.669,4.818-0.803
				c0.003-0.001,0.006-0.002,0.009-0.003c2.583-1.004,4.327-3.452,5.184-7.274c0.729-3.252,0.512-6.307,0.49-6.58
				c-0.011-0.083-0.017-0.168-0.02-0.254c-0.518-16.846-6.754-27.395-11.401-33.864c-6.234-8.695-13.62-9.37-15.735-9.37
				c-0.223,0-0.37,0.008-0.429,0.011c-0.032,0.002-0.074,0.004-0.105,0.005c-0.944,0.021-9.28,0.488-15.331,10.576
				c-6.575,10.624-9.468,21.954-8.866,34.674c0.004,0.079,0.005,0.159,0.001,0.237C5.601,150.983,5.842,161.865,12.376,163.841z
				 M31.324,143.236c-3.39-0.001-5.654-2.077-6.061-5.558c-0.218-1.65,0.302-3.364,1.427-4.708c1.144-1.364,2.784-2.186,4.501-2.252
				c3.511-0.127,6.241,2.604,6.362,6.266c0.115,3.482-2.357,6.108-5.878,6.245C31.555,143.234,31.44,143.236,31.324,143.236z
				 M30.894,137.678c0.064,0.016,0.197,0.042,0.431,0.042l0.137-0.004c0.596-0.022,0.588-0.256,0.578-0.551
				c0-0.009-0.046-0.937-0.598-0.937l-0.036,0.001c-0.162,0.006-0.344,0.112-0.487,0.282c-0.156,0.187-0.197,0.369-0.186,0.446
				c0.002,0.023,0.006,0.045,0.008,0.068C30.784,137.406,30.856,137.599,30.894,137.678z"/>
		</g>
		<g>
			<path class="st2" d="M77.972,169.439c-4.277,6.168-13.314,5.908-13.336,5.93c-5.671,0.033-6.543-4.684-6.541-4.691
				c-1.409-5.054,2.581-6.433,2.583-6.428c3.295-1.1,1.614-9.45,1.609-9.45c-0.34-3.962-1.64-9.036-3.353-23.683
				c-0.987-8.226,7.817-9.2,7.814-9.178c9.911-1.427,11.17,6.547,11.168,6.527c0.035-0.008,3.892,13.352,3.483,29.984
				C81.406,158.453,81.271,164.717,77.972,169.439z"/>
			<path class="st1" d="M64.578,178.127c-3.313,0-6.078-1.334-7.787-3.757c-0.142-0.202-1.062-1.547-1.35-2.953l-0.003,0.001
				c-0.998-3.579,0.038-5.969,1.082-7.344c0.809-1.065,2.012-1.961,3.082-2.361c0.486-0.831,0.488-3.869-0.009-6.324
				c-0.025-0.116-0.043-0.234-0.053-0.354c-0.128-1.482-0.414-3.224-0.81-5.634c-0.597-3.633-1.501-9.125-2.534-17.965
				c-0.39-3.248,0.427-6.122,2.363-8.305c2.579-2.907,6.447-3.771,7.807-3.925c0.914-0.131,1.807-0.198,2.655-0.198
				c7.743,0,10.886,5.396,11.571,8.75c0.159,0.494,0.348,1.238,0.634,2.442c0.335,1.407,0.836,3.693,1.326,6.593
				c0.853,5.045,1.823,12.908,1.606,21.724l-0.03-0.001c-0.012,2.084-0.712,7.946-3.895,12.501
				c-4.495,6.483-12.985,7.077-15.48,7.106c0.287-0.006,1.12-0.094,1.83-0.802c-0.513,0.511-1.206,0.799-1.93,0.804H64.578z
				 M60.804,170.159c0.14,0.598,0.819,2.452,3.773,2.452h0.025c0.029-0.001,0.059-0.002,0.088-0.002
				c1.3-0.014,7.943-0.311,11.014-4.741c2.683-3.839,2.927-9.141,2.938-9.433c0-0.017,0-0.034,0.001-0.053
				c0.389-15.822-3.144-28.373-3.329-29.006c-0.05-0.14-0.088-0.285-0.114-0.436c-0.793-4.291-5.632-4.415-6.181-4.415
				c-0.588,0-1.22,0.048-1.878,0.143c-0.058,0.009-0.117,0.016-0.176,0.02c-0.299,0.043-3.01,0.483-4.44,2.294
				c-0.765,0.969-1.044,2.213-0.853,3.806c1.02,8.72,1.875,13.921,2.5,17.719c0.392,2.387,0.683,4.15,0.836,5.764
				c0.253,0.925,0.381,2.226,0.452,4.065c0.226,5.841-1.96,7.856-3.858,8.512c-0.704,0.303-1.41,1.086-0.852,3.088
				C60.773,170.01,60.79,170.084,60.804,170.159z M60.806,170.165c0.089,0.471,0.054,0.96-0.104,1.416
				C60.93,170.921,60.846,170.357,60.806,170.165z M61.583,166.856c-0.01,0.004-0.021,0.007-0.031,0.011
				c-0.194,0.065-0.395,0.108-0.599,0.128C61.259,166.963,61.488,166.89,61.583,166.856z M75.326,129.409
				c0.304,0.877,1.218,1.799,2.557,1.814C76.726,131.208,75.715,130.472,75.326,129.409z"/>
		</g>
		<g>
			<path class="st2" d="M93.821,132.649c0.266,2.328,0.472,6.091,2.119,5.942c1.504-0.133,1.299-1.952,0.984-6.218
				c-0.534-6.66,5.146-7.104,5.145-7.094c6.615-0.81,7.723,5.091,7.72,5.078c1.785,6.99-0.72,13.805-0.701,13.806
				c-0.014,0.023-2.26,8.117-11.409,8.636c-9.682,0.632-12.873-3.958-12.882-3.983c-4.637-5.586-3.869-15.732-3.839-15.738
				c0.637-6.92,6.906-6.499,6.896-6.486C87.853,126.582,93.106,126.416,93.821,132.649z"/>
			<path class="st1" d="M95.887,155.617c-7.593,0-11.788-3.128-13.207-5.044l-0.005,0.004c-4.821-5.808-4.676-15.13-4.417-17.748
				l-0.045-0.004c0.411-4.48,3.477-9,9.395-9c0.081,0,0.186,0,0.31,0.007c0.003,0,0.006,0,0.008,0c1.992,0,5.05,0.878,6.969,3.708
				c0.427-0.997,0.975-1.758,1.492-2.318c1.967-2.131,4.459-2.582,5.348-2.677l-0.001-0.004c0.525-0.064,1.045-0.096,1.545-0.096
				c6.5,0,8.833,5.245,9.213,7.349c1.681,6.742-0.15,13.285-0.754,15.139l0,0c-0.008,0.026-0.016,0.053-0.025,0.081
				c-0.356,1.14-3.441,9.947-13.878,10.54C97.192,155.595,96.529,155.617,95.887,155.617z M87.053,147.229
				c0.208,0.257,2.479,2.872,8.834,2.872c0.522,0,1.065-0.019,1.612-0.054c6.82-0.386,8.75-6.034,8.947-6.677
				c0.005-0.017,0.011-0.034,0.016-0.052c0.009-0.031,0.02-0.063,0.03-0.096c0.492-1.508,1.989-6.841,0.624-12.183
				c-0.013-0.051-0.024-0.101-0.034-0.153c-0.157-0.704-0.887-2.926-3.804-2.926c-0.276,0-0.57,0.019-0.873,0.056
				c-0.047,0.006-0.094,0.01-0.141,0.014c-1.094,0.133-2.853,0.852-2.59,4.122l0.041,0.561c0.302,4.061,0.615,8.261-3.534,8.626
				c-0.11,0.01-0.223,0.016-0.335,0.016c-3.884,0-4.387-4.8-4.688-7.668c-0.026-0.252-0.052-0.495-0.078-0.724
				c-0.367-3.204-2.289-3.598-3.129-3.613c-0.057,0.002-0.115,0.001-0.175,0.001c-0.046-0.002-0.092-0.004-0.137-0.008
				c-1.658,0.004-3.631,0.703-3.933,3.988c-0.004,0.038-0.008,0.076-0.013,0.114c-0.171,1.93-0.112,9.587,3.227,13.61
				C86.967,147.11,87.011,147.169,87.053,147.229z M87.073,147.256c0.077,0.112,0.145,0.229,0.204,0.351
				C87.195,147.439,87.117,147.318,87.073,147.256z M82.2,135.541c-0.217,0.109-0.452,0.191-0.699,0.24
				C81.754,135.731,81.987,135.649,82.2,135.541z M83.688,133.482c-0.03,0.205-0.084,0.403-0.156,0.592
				C83.609,133.877,83.662,133.676,83.688,133.482z M85.722,128.342c0.683,0.832,1.579,0.972,1.871,0.996
				C86.864,129.268,86.19,128.912,85.722,128.342z M89.88,128.463c-0.179,0.194-0.383,0.359-0.604,0.493
				C89.48,128.833,89.687,128.673,89.88,128.463z"/>
		</g>
		<g>
			<path class="st2" d="M154.198,144.281c-0.004,0.008-1.271,6.012-6.327,5.978c-6.876-0.011-7.364-9.422-7.334-10.71
				c-0.129,1.645-0.919,10.873-7.689,11.081c-6.816,0.252-8.382-9.046-8.626-10.728c0.07,1.334,0.095,10.927-6.107,11.354
				c-5.696,0.426-6.932-5.869-6.934-5.878c0.043,0.013-3.569-16.436,4.356-20.172c11.063-5.066,16.16,5.421,16.709,7.666
				c0.455-2.28,4.529-12.412,15.751-8.782C157.804,127.403,154.137,144.302,154.198,144.281z"/>
			<path class="st1" d="M117.57,154.034c-5.853,0-8.465-5.082-9.088-8.091c-0.013-0.061-0.023-0.122-0.032-0.183l-0.015-0.081
				c-1.024-5.583-2.498-18.997,5.926-22.969c2.371-1.086,4.671-1.63,6.864-1.63c4.902,0,8.53,2.725,10.84,5.664
				c2.158-3.13,5.787-6.19,11.369-6.19c1.722,0,3.543,0.307,5.413,0.912c7.151,2.415,10.168,11.03,8.105,23.055l-0.015,0.086
				c-0.013,0.108-0.032,0.217-0.058,0.324c-0.701,3.017-3.37,8.085-8.964,8.085c-0.006,0-0.055,0-0.062,0
				c-2.456-0.004-4.65-0.916-6.329-2.638c-0.397-0.407-0.753-0.845-1.07-1.304c-1.807,2.691-4.379,4.214-7.52,4.311
				c-0.107,0.004-0.232,0.006-0.355,0.006c0,0-0.001,0-0.001,0c-3.273,0.001-5.757-1.58-7.555-3.928
				c-1.327,2.437-3.447,4.318-6.718,4.543C118.065,154.025,117.813,154.034,117.57,154.034z M113.891,144.86
				c0.116,0.521,0.932,3.658,3.679,3.657c0.11,0,0.223-0.004,0.339-0.013c3.751-0.258,3.563-8.378,3.559-8.46
				c-0.076-1.472,1.018-2.745,2.485-2.888c1.47-0.148,2.788,0.89,2.999,2.349c0.203,1.398,1.427,8.371,5.626,8.37
				c0.055,0,0.112-0.001,0.169-0.003c3.955-0.121,4.842-6.014,5.041-8.54c0.117-1.489,1.398-2.622,2.89-2.538
				c1.491,0.076,2.651,1.326,2.617,2.819c-0.022,0.907,0.299,4.989,2.177,6.913c0.646,0.663,1.41,0.972,2.403,0.974
				c2.532,0,3.444-3.08,3.611-3.74c0.01-0.064,0.019-0.122,0.028-0.172c0.417-2.431,2.165-14.668-4.4-16.885
				c-1.287-0.417-2.537-0.633-3.681-0.633c-6.606,0-8.467,7.267-8.482,7.34c-0.253,1.268-1.353,2.191-2.645,2.219
				c-1.307,0.033-2.431-0.847-2.738-2.102c-0.263-1.077-2.921-6.93-8.343-6.93c-1.395,0-2.922,0.375-4.539,1.116
				c-4.028,1.899-4.043,10.331-2.825,16.972C113.87,144.734,113.881,144.793,113.891,144.86z M156.859,145.007
				c-0.056,0.206-0.137,0.408-0.243,0.602C156.721,145.417,156.803,145.214,156.859,145.007z"/>
		</g>
		<g>
			<path class="st0" d="M201.998,144.846c-0.004,0.007-1.38,6.425-6.812,6.377c-7.381-0.024-7.885-10.091-7.85-11.467
				c-0.141,1.759-1.013,11.623-8.275,11.833c-7.306,0.257-8.967-9.686-9.224-11.486c0.073,1.426,0.079,11.684-6.565,12.129
				c-6.1,0.447-7.408-6.287-7.412-6.297c0.046,0.013-3.789-17.581,4.701-21.563c11.86-5.398,17.309,5.824,17.894,8.227
				c0.493-2.437,4.879-13.266,16.923-9.358C205.906,126.805,201.934,144.869,201.998,144.846z"/>
			<path class="st1" d="M162.698,155.012c-6.095,0-8.855-5.319-9.53-8.477c-0.017-0.075-0.03-0.149-0.04-0.224l-0.015-0.089
				c-1.08-5.928-2.627-20.168,6.277-24.346c2.506-1.141,4.936-1.713,7.249-1.713c5.317,0,9.213,3.023,11.645,6.216
				c2.268-3.372,6.147-6.738,12.169-6.738c1.836,0,3.779,0.329,5.776,0.977c7.575,2.565,10.749,11.704,8.525,24.462l-0.017,0.096
				c-0.013,0.11-0.033,0.219-0.06,0.327c-0.743,3.164-3.558,8.479-9.43,8.479h-0.085c-2.586-0.009-4.892-0.972-6.655-2.785
				c-0.484-0.499-0.909-1.041-1.282-1.61c-1.917,2.977-4.686,4.661-8.084,4.76c-0.109,0.004-0.233,0.006-0.356,0.006
				c-3.558,0-6.229-1.772-8.134-4.38c-1.389,2.68-3.65,4.774-7.195,5.012c-0.247,0.019-0.506,0.027-0.757,0.027
				C162.699,155.012,162.698,155.012,162.698,155.012z M158.569,145.417c0.132,0.586,1.045,4.079,4.13,4.078
				c0.12,0,0.244-0.004,0.371-0.013c4.211-0.282,4.017-9.147,4.013-9.237c-0.076-1.473,1.02-2.745,2.488-2.887
				c1.471-0.142,2.788,0.895,2.997,2.355c0.221,1.543,1.571,9.313,6.398,9.119c4.415-0.128,5.402-6.543,5.622-9.296
				c0.119-1.49,1.414-2.611,2.895-2.535c1.492,0.078,2.65,1.331,2.612,2.824c-0.025,0.984,0.318,5.414,2.37,7.526
				c0.735,0.756,1.603,1.109,2.732,1.113c2.891,0,3.913-3.435,4.093-4.147c0.01-0.071,0.021-0.133,0.031-0.187
				c0.643-3.687,2.194-15.901-4.827-18.277c-1.413-0.459-2.783-0.696-4.04-0.696c-7.228,0-9.279,7.909-9.295,7.989
				c-0.256,1.267-1.357,2.186-2.649,2.211c-1.307,0.038-2.428-0.85-2.734-2.105c-0.286-1.178-3.187-7.573-9.136-7.573
				c-1.521,0-3.181,0.404-4.935,1.203c-4.416,2.072-4.469,11.183-3.165,18.351C158.548,145.285,158.559,145.346,158.569,145.417z
				 M204.656,145.583c-0.055,0.197-0.133,0.391-0.233,0.577C204.523,145.976,204.601,145.782,204.656,145.583z"/>
		</g>
		<g>
			<path class="st0" d="M223.779,129.797c0.061-0.189,1.582-4.114,5.973-3.682c7.37,0.766,5.885,13.393,5.888,13.378
				c-1.118,15.045-8.224,13.208-8.229,13.229c-0.003-0.008-4.567-0.093-4.836-5.14c-0.009,0.019-1.714,5.178-9.764,3.604
				c-0.001-0.031-8.78-0.821-8.389-12.152c0.021,0.039-0.591-13.377,10.981-13.749C222.402,125.107,223.678,129.352,223.779,129.797
				z M218.939,139.316c-0.009,1.393,0.712,1.896,1.753,1.98c1.039,0.084,1.904-0.539,2.001-1.678c0.09-1.037-0.49-2.136-1.686-2.231
				C219.908,137.298,218.921,138.269,218.939,139.316z"/>
			<path class="st1" d="M228.11,155.541c-0.466,0-0.825-0.046-1.025-0.077c-2.005-0.159-4.043-1.062-5.451-2.77
				c-1.415,0.88-3.347,1.548-5.949,1.548c-1.068,0-2.211-0.118-3.397-0.349c-1.269-0.207-3.65-0.822-5.892-2.671
				c-2.282-1.881-4.951-5.531-4.731-12.241c-0.009-1.372,0.128-4.769,1.536-8.144c2.16-5.178,6.462-8.128,12.114-8.309
				c0.184-0.005,0.348-0.007,0.507-0.007c3.794,0,6.387,1.16,8.075,2.62c1.26-1.022,2.97-1.816,5.191-1.816
				c0.306,0,0.62,0.016,0.933,0.047c2.263,0.235,4.199,1.287,5.616,3.042c3.495,4.331,2.917,11.765,2.749,13.331
				C237.314,153.999,230.844,155.54,228.11,155.541z M227.742,149.985c0.061,0.007,0.119,0.016,0.175,0.025
				c0.025,0.005,0.084,0.015,0.193,0.015c1.836,0,4.191-2.812,4.779-10.736l0,0c0.003-0.034,0.006-0.068,0.01-0.102
				c0.286-2.613,0.109-7.248-1.554-9.309c-0.501-0.621-1.081-0.935-1.879-1.018c-0.12-0.012-0.251-0.019-0.377-0.019
				c-1.868,0-2.61,1.636-2.713,1.888c-0.405,1.135-1.507,1.875-2.719,1.826c-1.227-0.055-2.268-0.913-2.557-2.103
				c-0.092-0.296-0.904-2.414-5.277-2.414c-0.114,0-0.231,0.001-0.349,0.004c-7.783,0.25-8.315,8.411-8.292,10.907
				c0.001,0.061-0.001,0.121-0.003,0.18h0.001c-0.259,7.517,4.108,9.023,5.998,9.321c0.055,0.009,0.109,0.019,0.163,0.03v-0.001
				c0.84,0.165,1.629,0.248,2.344,0.248c3.373,0,4.213-1.871,4.297-2.084c0.034-0.093,0.068-0.177,0.112-0.266
				c0.551-1.131,1.795-1.749,3.028-1.497c1.232,0.25,2.14,1.3,2.207,2.556c0.085,1.594,0.837,2.447,2.234,2.534
				C227.622,149.971,227.682,149.977,227.742,149.985z M220.876,144.062C220.876,144.062,220.876,144.062,220.876,144.062
				c-0.134,0-0.269-0.006-0.405-0.016c-2.615-0.212-4.296-2.064-4.29-4.72c-0.01-1.2,0.482-2.396,1.355-3.283
				c0.973-0.99,2.327-1.516,3.693-1.406c1.216,0.097,2.314,0.657,3.091,1.575c0.829,0.978,1.237,2.307,1.121,3.643
				C225.234,142.291,223.314,144.062,220.876,144.062z M220.872,138.542c-0.452,0.004-0.896,0.473-0.928,0.842
				c-0.014,0.161,0.11,0.328,0.164,0.391c0.169,0.2,0.436,0.341,0.679,0.361c0.256,0.022,0.521-0.064,0.681-0.226
				c0.128-0.13,0.208-0.322,0.225-0.537C221.624,139.036,221.202,138.603,220.872,138.542z"/>
		</g>
	</g>
	<g>
		<path class="st2" d="M61.313,51.251c0,4.01-1.893,7.261-4.23,7.261c-2.336,0-4.23-3.251-4.23-7.261s1.894-7.261,4.23-7.261
			C59.42,43.99,61.313,47.241,61.313,51.251z"/>
	</g>
	<g>
		<path class="st2" d="M68.036,43.99c0,1.937-0.946,3.507-2.113,3.507c-1.168,0-2.114-1.57-2.114-3.507
			c0-1.935,0.946-3.505,2.114-3.505C67.09,40.485,68.036,42.055,68.036,43.99z"/>
	</g>
	<g>
		<g>
			<path class="st2" d="M23.727,25.996c1.064-2.097,3.708-2.626,7.619-3.195c1.82-0.265,3.702-0.539,5.366-1.145
				c6.229-2.268,11.304-2.683,19.053-2.684c6.518-0.001,9.961,2.565,11.139,3.668c0.853,0.8,2.117,0.972,3.155,0.435
				c9.821-5.095,20.476-8.22,31.665-9.288c2.778-0.266,5.596-0.4,8.376-0.4c9.484,0,18.775,1.523,27.614,4.525
				c1.014,0.344,2.135,0.071,2.876-0.701c1.526-1.589,4.385-3.684,9.337-4.638c5.593-1.077,9.263-1.517,12.669-1.517
				c2.144,0,4.226,0.173,6.548,0.545c0.815,0.13,1.699,0.19,2.78,0.19c0.896,0,1.818-0.042,2.71-0.084
				c0.869-0.04,1.766-0.081,2.613-0.081c2.961,0,4.565,0.539,5.539,1.861c0.629,0.854,1.152,2.216,1.383,4.337
				c0.439-5.55-0.323-8.415-1.383-9.854c-0.974-1.322-2.578-1.861-5.539-1.861c-0.847,0-1.744,0.041-2.613,0.081
				c-0.892,0.042-1.814,0.084-2.71,0.084c-1.081,0-1.965-0.06-2.78-0.191c-2.323-0.371-4.404-0.545-6.548-0.545
				c-3.406,0-7.076,0.44-12.669,1.517c-4.952,0.954-7.811,3.049-9.337,4.638c-0.742,0.771-1.862,1.044-2.876,0.701
				c-8.839-3.002-18.13-4.525-27.614-4.525c-2.78,0-5.598,0.134-8.376,0.399c-11.189,1.069-21.843,4.194-31.665,9.289
				c-1.038,0.537-2.302,0.364-3.155-0.436c-1.178-1.103-4.621-3.668-11.139-3.667c-7.75,0.001-12.824,0.416-19.053,2.683
				c-1.665,0.607-3.546,0.88-5.366,1.145c-3.912,0.569-6.555,1.099-7.619,3.196c-0.611,1.204-0.898,3.194-0.354,6.447
				C23.473,26.575,23.591,26.265,23.727,25.996z"/>
		</g>
	</g>
</g>
</svg>