<!-- Generator: Adobe Illustrator 22.1.0, SVG Export Plug-In  -->
<svg version="1.1"
	 xmlns="http://www.w3.org/2000/svg" xmlns:xlink="http://www.w3.org/1999/xlink" xmlns:a="http://ns.adobe.com/AdobeSVGViewerExtensions/3.0/"
	 x="0px" y="0px" width="35.736px" height="34.876px" viewBox="0 0 35.736 34.876"
	 style="enable-background:new 0 0 35.736 34.876;" xml:space="preserve">
<style type="text/css">
	.st0{clip-path:url(#SVGID_2_);}
	.st1{fill:#FFFFFF;}
	.st2{fill:#40B1E5;}
	.st3{fill:#FAAD2E;}
	.st4{fill:#F05F48;}
	.st5{clip-path:url(#SVGID_4_);}
</style>
<defs>
</defs>
<g>
	<g>
		<g>
			<g>
				<defs>
					<path id="SVGID_1_" d="M33.276,15.934c0,8.31-6.736,15.045-15.046,15.045c-8.309,0-15.045-6.735-15.045-15.045
						S9.922,0.889,18.231,0.889C26.54,0.889,33.276,7.624,33.276,15.934z"/>
				</defs>
				<clipPath id="SVGID_2_">
					<use xlink:href="#SVGID_1_"  style="overflow:visible;"/>
				</clipPath>
				<g class="st0">
					<g>
						<g>
							<rect x="0.314" class="st1" width="35.11" height="17.63"/>
						</g>
					</g>
					<g>
						<g>
							<rect x="0.314" y="17.247" class="st2" width="35.11" height="17.629"/>
						</g>
					</g>
					<g>
						<g>
							<g>
								<path class="st3" d="M29.572,19.297c-1.741,0-2.656-0.355-3.463-0.669c-0.673-0.262-1.204-0.468-2.39-0.468
									c-1.185,0-1.716,0.206-2.389,0.468c-0.808,0.314-1.722,0.669-3.463,0.669c-1.741,0-2.656-0.355-3.463-0.669
									c-0.672-0.262-1.204-0.468-2.389-0.468c-1.184,0-1.717,0.206-2.389,0.468c-0.808,0.314-1.722,0.669-3.463,0.669
									s-2.655-0.355-3.463-0.669c-0.673-0.262-1.204-0.468-2.389-0.468v-2.963c1.741,0,2.655,0.354,3.463,0.669
									c0.673,0.262,1.203,0.468,2.389,0.468c1.185,0,1.716-0.206,2.389-0.468c0.807-0.314,1.722-0.669,3.463-0.669
									c1.74,0,2.655,0.354,3.462,0.669c0.673,0.262,1.204,0.468,2.39,0.468c1.185,0,1.716-0.206,2.389-0.468
									c0.808-0.314,1.722-0.669,3.463-0.669s2.656,0.354,3.463,0.669c0.673,0.262,1.204,0.468,2.39,0.468
									c1.185,0,1.716-0.206,2.389-0.468c0.808-0.314,1.723-0.669,3.463-0.669v2.963c-1.185,0-1.716,0.206-2.389,0.468
									C32.228,18.941,31.313,19.297,29.572,19.297z"/>
								<path class="st1" d="M29.572,19.61c-1.801,0-2.744-0.367-3.577-0.691c-0.667-0.259-1.149-0.446-2.275-0.446
									c-1.126,0-1.608,0.188-2.275,0.446c-0.832,0.324-1.775,0.691-3.576,0.691c-1.801,0-2.744-0.367-3.576-0.691
									c-0.667-0.259-1.148-0.446-2.275-0.446c-1.127,0-1.608,0.188-2.275,0.446c-0.832,0.324-1.775,0.691-3.576,0.691
									c-1.8,0-2.744-0.367-3.576-0.691c-0.667-0.259-1.149-0.446-2.275-0.446H0v-3.589h0.314c1.804,0,2.745,0.367,3.576,0.691
									c0.667,0.259,1.149,0.446,2.275,0.446s1.608-0.188,2.275-0.446c0.83-0.324,1.771-0.691,3.576-0.691
									c1.804,0,2.745,0.367,3.576,0.691c0.667,0.259,1.149,0.446,2.275,0.446c1.126,0,1.608-0.188,2.275-0.446
									c0.831-0.324,1.773-0.691,3.576-0.691c1.805,0,2.746,0.367,3.577,0.691c0.666,0.259,1.148,0.446,2.275,0.446
									c1.126,0,1.608-0.188,2.275-0.446c0.831-0.324,1.772-0.691,3.576-0.691h0.312v3.589h-0.312
									c-1.126,0-1.607,0.187-2.275,0.446C32.316,19.243,31.372,19.61,29.572,19.61z M23.72,17.847
									c1.244,0,1.827,0.227,2.502,0.489c0.782,0.304,1.667,0.649,3.351,0.649c1.683,0,2.568-0.345,3.35-0.649
									c0.616-0.239,1.155-0.449,2.19-0.484v-2.338c-1.485,0.04-2.307,0.359-3.036,0.644c-0.676,0.263-1.26,0.489-2.503,0.489
									c-1.244,0-1.827-0.227-2.503-0.489c-0.779-0.304-1.663-0.648-3.35-0.648c-1.686,0-2.569,0.345-3.35,0.648
									c-0.675,0.263-1.258,0.489-2.502,0.489c-1.243,0-1.827-0.227-2.502-0.489c-0.78-0.304-1.663-0.648-3.35-0.648
									c-1.686,0-2.57,0.345-3.35,0.648c-0.676,0.263-1.259,0.489-2.502,0.489s-1.827-0.227-2.502-0.489
									c-0.73-0.285-1.552-0.604-3.037-0.644v2.338c1.034,0.035,1.573,0.245,2.19,0.484c0.781,0.304,1.667,0.649,3.35,0.649
									c1.683,0,2.568-0.345,3.35-0.649c0.675-0.263,1.258-0.489,2.502-0.489c1.244,0,1.827,0.227,2.502,0.489
									c0.781,0.304,1.666,0.649,3.35,0.649c1.684,0,2.568-0.345,3.35-0.649C21.893,18.073,22.476,17.847,23.72,17.847z"/>
							</g>
						</g>
					</g>
				</g>
			</g>
			<g>
				<g>
					<g>
						<path class="st4" d="M21.038,12.383c0,2.256-1.419,3.038-3.169,3.038c-1.751,0-3.17-0.782-3.17-3.038
							c0-2.257,3.17-5.457,3.17-5.457S21.038,10.126,21.038,12.383z"/>
					</g>
				</g>
				<g>
					<g>
						<path class="st3" d="M19.666,13.624c0,0.992-0.805,1.797-1.797,1.797c-0.993,0-1.797-0.805-1.797-1.797
							c0-0.993,0.804-1.797,1.797-1.797C18.861,11.827,19.666,12.631,19.666,13.624z"/>
					</g>
				</g>
			</g>
		</g>
		<g>
			<g>
				<path class="st1" d="M18.231,31.468c-8.565,0-15.534-6.969-15.534-15.534S9.665,0.399,18.231,0.399
					c8.566,0,15.535,6.969,15.535,15.534S26.797,31.468,18.231,31.468z M18.231,1.378c-8.025,0-14.556,6.53-14.556,14.556
					s6.53,14.556,14.556,14.556c8.026,0,14.556-6.53,14.556-14.556S26.257,1.378,18.231,1.378z"/>
			</g>
		</g>
	</g>
</g>
</svg>